<svg xmlns="http://www.w3.org/2000/svg" viewBox="0 0 40 40" style="enable-background:new 0 0 40 40" xml:space="preserve"><path d="M20 0C8.9 0 0 8.9 0 20c0 11 8.9 20 20 20 11 0 20-8.9 20-20C40 9 31.1 0 20 0zm0 37.7c-9.7 0-17.6-7.9-17.7-17.7 0-9.7 7.9-17.6 17.7-17.7 9.7 0 17.6 7.9 17.7 17.7-.1 9.7-8 17.6-17.7 17.7zm1.5-18.8c1.7-2.2.1-5.5-2.7-5.5-1.9 0-3.4 1.5-3.4 3.4 0 .7.2 1.5.7 2.1-3 2.5-1.2 7.5 2.7 7.5 4 .1 5.8-4.9 2.7-7.5zm-3.8-2c0-.6.5-1.1 1.1-1.1.6 0 1.1.5 1.1 1.1s-.5 1.1-1.1 1.1c-.6 0-1.1-.5-1.1-1.1zm1.1 7.2c-1 0-1.9-.9-1.9-1.9s.9-1.9 1.9-1.9 1.9.9 1.9 1.9-.9 1.9-1.9 1.9zM11 13.5H8.7c-.6 0-1.2.5-1.2 1.2s.5 1.2 1.2 1.2h1.1v9.5c0 .6.5 1.2 1.2 1.2.6 0 1.2-.5 1.2-1.2V14.7c0-.6-.5-1.2-1.2-1.2zm20.2 2.7h-1.5v-1.6c0-.6-.5-1.2-1.2-1.2-.6 0-1.2.5-1.2 1.2v1.6h-1.6c-.6 0-1.2.5-1.2 1.2 0 .6.5 1.2 1.2 1.2h1.6v1.6c0 .6.5 1.2 1.2 1.2.6 0 1.2-.5 1.2-1.2v-1.6h1.6c.6 0 1.2-.5 1.2-1.2-.1-.7-.6-1.2-1.3-1.2.1 0 .1 0 0 0z" style="fill:#fff"/></svg>