<svg width="173" height="17" viewBox="0 0 173 17" fill="none" xmlns="http://www.w3.org/2000/svg">
<path d="M10.18 11.3417C10.1075 12.59 8.99092 13.4508 7.72929 13.3647H4.42295V9.16084L7.42476 9.08911C9.07792 9.08911 10.1945 9.94997 10.1945 11.27V11.3417H10.18ZM9.71599 4.94259C9.62898 6.04737 8.59938 6.82215 7.49726 6.73607H4.42295V3.00564H7.26524C8.68638 3.00564 9.71599 3.78042 9.71599 4.79911V4.94259ZM10.7311 7.75476C12.3118 6.97998 12.7903 6.19085 12.7903 4.64129C12.7903 3.00564 11.9202 1.59956 10.4266 0.896514C9.62898 0.580862 8.68638 0.509123 6.00361 0.509123H0V3.00564H1.18912V13.3791H0V15.8756H8.29484C11.2966 15.8756 13.3559 14.1682 13.3559 11.5856C13.5009 9.86389 12.3988 8.29998 10.7311 7.75476ZM17.9963 8.50085C18.2284 7.26694 19.316 6.26259 20.6211 6.26259H20.6936C21.9262 6.26259 23.0138 7.26694 23.0138 8.57259L17.9963 8.50085ZM17.8368 10.5813H26.1897C26.2622 9.03171 25.7981 7.56824 25.0295 6.26259C24.0289 4.71303 22.3178 3.86651 20.5341 3.86651C17.2858 3.86651 14.893 6.42042 14.893 9.96432C14.893 13.5082 17.2858 16.0621 20.5341 16.0621C23.3184 16.0621 25.4066 14.5126 25.9431 11.973L22.9993 12.0448C22.6948 13.0491 21.6797 13.8239 20.6066 13.7378C20.0845 13.7521 18.1558 13.5943 17.8368 10.5813ZM39.6905 15.8613H41.4162V8.1278L36.0072 8.11346V8.1278L35.9347 9.54823H39.618C39.618 9.93563 39.618 10.3517 39.5455 10.7391C39.154 12.7478 37.4283 14.283 35.3111 14.3691C32.6428 14.3691 30.6126 11.6717 30.6126 7.96998C30.6126 3.2639 33.4259 1.6426 35.3111 1.6426C36.5582 1.71434 37.8199 2.33129 38.6029 3.33564C38.9945 3.88086 39.3135 4.48346 39.4585 5.17216H41.1842V0.509123H39.5455V2.73303C38.6029 1.11173 36.8773 0.0356463 34.9196 0.107385C31.3957 0.107385 28.5679 3.65129 28.5679 8.1278C28.5679 12.6043 31.3812 16.0621 34.9921 16.0621C36.2392 16.0621 37.5008 15.603 38.5159 14.7565C38.98 14.2974 39.3715 13.8669 39.6905 13.3217V15.8613ZM51.0597 11.7434C50.8277 13.4365 49.3195 14.6561 47.5793 14.7421C46.3177 14.7421 45.2011 13.8239 45.1286 12.5182C45.1286 11.0548 46.3177 10.4521 49.9576 9.97867L51.0597 9.82084V11.7434ZM51.0597 15.8613H54.453L54.2935 14.4408H52.6404V8.07041C52.6404 5.15781 50.5811 4.08173 48.1304 4.08173C47.0283 4.08173 45.8392 4.38303 44.9691 5.08607C44.2585 5.70303 43.78 6.52085 43.6204 7.43911H45.4331C45.7522 5.9039 46.6222 5.38737 48.2754 5.38737C49.9431 5.38737 50.9582 6.23389 50.9582 7.53954V8.68737L49.8561 8.75911C45.1141 9.21824 43.1419 10.2943 43.1419 12.5182V12.7478C43.3014 14.6704 45.0416 16.2056 47.0138 16.0478C48.667 16.0478 50.2476 15.1869 51.0452 13.7234V15.8613H51.0597ZM70.5207 15.8613H73.798V14.4408H72.1593V7.03737C72.1593 5.02868 71.1442 3.86651 69.3606 3.86651C68.4325 3.86651 67.5769 4.2539 66.8663 4.87085C66.4023 5.32998 66.0832 5.80346 65.7787 6.33433C65.4742 4.71303 64.6186 3.85216 63.0524 3.85216C60.8772 3.85216 59.8621 5.55955 59.311 6.33433L59.2385 4.06738H55.8162V5.48781H57.5274V14.4408H55.8162V15.8613H60.8772V14.4408H59.166V8.65867C59.166 7.58259 60.4857 5.32998 62.2838 5.32998C63.4585 5.32998 63.995 5.94694 63.995 7.42476V15.8613H67.4174V14.4408H65.6917V8.51519C65.6917 7.66867 66.7793 5.25824 68.8095 5.25824C69.9696 5.25824 70.5207 6.03302 70.5207 7.65433V15.8613ZM85.6892 9.92128C85.6892 12.7908 84.4421 14.57 82.4264 14.57C80.5557 14.4121 79.091 12.8626 79.091 10.94L79.0185 8.93128C79.0185 7.22389 80.7297 5.37303 82.4409 5.37303C84.3696 5.35868 85.6892 7.06607 85.6892 9.92128ZM87.5599 10.1652C87.5599 6.76476 85.5442 4.06738 82.8904 4.06738C80.8747 4.06738 79.5406 5.74607 79.0765 6.59259V0.107385H75.8137V1.52782H77.3654V14.4408H75.7267V15.8613H79.0765V13.7234C79.7726 14.6561 80.7877 16.0621 82.8904 16.0621C85.3847 16.0621 87.5599 13.3361 87.5599 10.1652ZM88.4735 15.8613H93.5055V14.4408H91.9394V0.107385H88.5605V1.42738H90.2137V14.4408H88.488V15.8613H88.4735ZM96.7974 9.06041C96.7974 8.67302 96.9569 8.28563 97.0294 7.91259C97.4209 6.52085 98.668 5.53085 100.147 5.44477C100.843 5.37303 101.554 5.67433 102.105 6.13346C102.888 6.97998 103.28 7.98433 103.28 9.06041H96.7974ZM96.7248 10.3661H105.237C105.237 6.29129 102.902 4.05303 100.002 4.05303C97.1164 4.05303 94.8542 6.66433 94.8542 10.0504C94.8542 13.5943 97.1164 16.0478 100.321 16.0478C101.8 16.0478 103.135 15.4308 104.063 14.3547C104.527 13.8095 104.846 13.2787 105.005 12.59L103.062 12.6617C102.438 14.0534 101.583 14.6561 100.249 14.6561C99.4656 14.6561 98.6825 14.3547 98.059 13.8095C97.2759 13.0634 96.8844 12.0591 96.7248 10.3661ZM116.157 10.1939H112.096L114.127 3.36434L116.157 10.1939ZM117.955 15.8613H121.464V13.4221H120.29L116.012 0.509123H112.27L108.051 13.4221H106.876V15.8613H110.472L111.487 12.5326H116.954L117.955 15.8613ZM137.634 6.30563H138.649V4.06738H133.965V6.30563H135.139L133.573 13.1926L131.63 4.06738H128.585L126.627 13.3504L125.003 6.30563H126.163V4.06738H121.479V6.30563H122.494L125.061 15.8613H128.179L130.049 7.68302L132.007 15.8613H135.125L137.634 6.30563ZM147.001 11.5282C146.929 12.92 145.754 13.9961 144.348 13.9961C143.173 13.9961 142.39 13.3791 142.39 12.4608C142.39 10.8395 144.188 10.61 146.914 10.3804H146.987V11.4565V11.5282H147.001ZM147.088 15.8613H150.757V13.6087H149.742L149.815 8.14215C149.815 5.53085 148.089 4.06738 144.812 4.06738C141.998 4.06738 140.128 5.53085 139.968 7.84085L142.782 7.91259V7.84085C142.854 6.76476 143.405 6.07607 144.884 6.07607C146.363 6.07607 146.987 6.62129 146.987 8.38606C143.231 8.68737 139.33 9.07476 139.33 12.4608C139.33 14.5413 141.128 16.0765 143.478 16.0765C144.884 16.0765 146.218 15.5313 147.074 14.4695V15.8613H147.088ZM159.226 6.60694C159.69 6.60694 160.154 6.67868 160.618 6.76476V4.02433C160.154 3.95259 159.763 3.86651 159.299 3.86651C157.979 3.86651 157.123 4.49781 156.355 5.98998V4.06738H152.396V6.37737H153.556V13.6087H152.396V15.8613H157.82V13.6087H156.427V9.04606C156.514 7.62563 157.747 6.5352 159.226 6.60694ZM164.302 8.50085C164.534 7.26694 165.621 6.26259 166.926 6.26259H166.999C168.232 6.26259 169.319 7.26694 169.319 8.57259L164.302 8.50085ZM164.215 10.5813H172.568C172.64 9.03171 172.176 7.56824 171.407 6.26259C170.407 4.71303 168.696 3.86651 166.912 3.86651C163.664 3.86651 161.256 6.42042 161.256 9.96432C161.256 13.5082 163.649 16.0621 166.912 16.0621C169.696 16.0621 171.785 14.5126 172.321 11.973L169.377 12.0448C169.073 13.0491 168.058 13.8239 166.984 13.7378C166.462 13.7521 164.534 13.5943 164.215 10.5813Z" fill="white"/>
</svg>
