<svg width="240" height="96" fill="none" xmlns="http://www.w3.org/2000/svg"><g clip-path="url(#a)" fill="#96C8D8"><path fill-rule="evenodd" clip-rule="evenodd" d="M0 26h35.161v44.194H0V26Zm8.516 37.484V34h8.645c3.032 0 5.42.645 7.097 2 1.678 1.355 2.58 3.355 2.58 6 0 1.29-.322 2.58-.902 3.742a6.027 6.027 0 0 1-2.775 2.452c1.42.258 2.71 1.16 3.42 2.387a7.651 7.651 0 0 1 1.096 4.258c0 2.838-.774 4.968-2.387 6.387-1.613 1.42-3.935 2.193-6.903 2.193l-9.87.065Zm5.355-13.032v8.451h4.065a3.5 3.5 0 0 0 2.71-1.032c.644-.839.967-1.936.902-3.032a5.703 5.703 0 0 0-.774-3.226c-.58-.774-1.484-1.226-2.451-1.161H13.87Zm0-4h3.161a3.5 3.5 0 0 0 2.71-1.033c.645-.774 1.032-1.806.903-2.838.065-1.097-.258-2.194-.968-3.033-.774-.71-1.87-1.032-2.903-.967h-2.903v7.87Z"/><path d="M70.968 70.129h-2.065V26h2.065v44.129ZM106.839 70.129h-2.065V26h2.065v44.129ZM142.645 70.129h-2.064V26h2.064v44.129ZM178.516 70.129h-2V26h2v44.129ZM214.452 70.129h-2.065V26h2.065v44.129ZM61.032 58.58c-.774 1.355-1.935 2.452-3.29 3.227-1.742 1.032-3.806 1.483-5.806 1.419-3.097 0-5.613-.968-7.484-2.839-1.871-1.87-2.84-4.516-2.84-8v-8.71c0-3.419.904-6.064 2.71-7.935 1.807-1.871 4.194-2.839 7.162-2.774 3.032 0 5.29.774 6.903 2.258 1.613 1.484 2.452 3.613 2.58 6.387l-.064.129h-3.87c-.065-1.871-.517-3.29-1.42-4.194-.903-.903-2.258-1.419-4-1.419a5.225 5.225 0 0 0-4.258 1.936c-1.032 1.29-1.548 3.16-1.548 5.612v8.775c0 2.516.58 4.451 1.677 5.742a5.702 5.702 0 0 0 4.516 2c1.161.064 2.258-.194 3.29-.71.71-.452 1.355-1.097 1.742-1.807v-6.774H52v-2.968h9.161v10.646h-.129ZM83.871 52.71h7.484l-3.613-12.904h-.13L83.872 52.71Zm8.452 3.225h-9.355l-2.13 7.42h-4.193l9.032-29.42h4l8.968 29.42h-4.193l-2.13-7.42ZM116.774 33.935l6.903 24h.129l6.904-24H136v29.42h-4.065v-11.29l.323-11.29-.129-.065-7.032 22.645h-2.71l-7.097-22.58h-.064l.322 11.29v11.29h-4.064v-29.42h5.29ZM161.484 63.355h-4.065v-29.42h4.065v29.42ZM205.677 63.355h-4.129l-11.161-21.871h-.129v21.87h-4.064V33.936h4.064l11.161 21.807h.129V33.936h4.129v29.419ZM240 58.774c-.839 1.355-1.935 2.452-3.29 3.226-1.742 1.032-3.807 1.484-5.807 1.42-3.097 0-5.548-.904-7.484-2.775-1.871-1.87-2.838-4.516-2.838-8v-8.839c0-3.419.903-6.064 2.709-7.935 1.807-1.871 4.194-2.839 7.097-2.839 3.032 0 5.29.775 6.903 2.258 1.613 1.484 2.452 3.613 2.581 6.387l-.065.13h-3.871c-.064-1.872-.516-3.226-1.419-4.194s-2.258-1.42-4-1.42a5.224 5.224 0 0 0-4.258 1.936c-1.032 1.29-1.548 3.161-1.548 5.613v8.774c0 2.516.58 4.452 1.677 5.742a5.702 5.702 0 0 0 4.516 2c1.162.065 2.258-.194 3.291-.71.709-.451 1.354-1.096 1.741-1.806v-6.71h-5.032v-2.967H240v10.71Z"/></g><defs><clipPath id="a"><path fill="#fff" transform="translate(0 26)" d="M0 0h240v44.194H0z"/></clipPath></defs></svg>