<svg width="241" height="96" fill="none" xmlns="http://www.w3.org/2000/svg"><path fill-rule="evenodd"
                                                                                  clip-rule="evenodd" d="M50.176 77.484c2.966 0 4.102-1.704 4.102-3.345 0-4.164-6.626-2.713-6.626-5.237 0-1.01.946-1.767 2.272-1.767a4.544 4.544 0 0 1 3.281 1.451l.82-1.01A5.49 5.49 0 0 0 50.05 66c-2.209 0-3.85 1.262-3.85 3.155 0 3.976 6.626 2.335 6.626 5.238 0 .883-.63 1.956-2.65 1.956a4.481 4.481 0 0 1-3.47-1.451l-.821 1.072a5.364 5.364 0 0 0 4.291 1.83v-.315Zm23.664.315V67.324h3.534v-1.262h-8.456v1.262h3.533v9.907h1.389v.568Zm23.348-.568a4.165 4.165 0 0 0 4.544-4.606v-6.563h-1.388v6.815a3.155 3.155 0 0 1-6.311 0v-6.815h-1.388v6.878a4.165 4.165 0 0 0 4.543 4.544v-.253Zm24.421-1.199h-2.461v-8.708h2.461a4.353 4.353 0 1 1 0 8.708Zm0 1.2a5.615 5.615 0 0 0 4.35-9.761 5.622 5.622 0 0 0-4.35-1.409h-4.038v11.17h4.038Zm21.329 0h1.389v-11.17h-1.515l.126 11.17Zm22.528-1.01a4.542 4.542 0 0 1-4.543-4.544 4.544 4.544 0 1 1 4.543 4.544Zm0 1.262a5.809 5.809 0 0 0 5.54-3.403 5.806 5.806 0 1 0-11.093-2.403 5.5 5.5 0 0 0 3.357 5.379 5.491 5.491 0 0 0 2.196.427Zm24.737 0c3.029 0 4.102-1.704 4.102-3.345 0-4.164-6.626-2.713-6.626-5.237 0-1.01 1.009-1.767 2.335-1.767a4.357 4.357 0 0 1 3.281 1.451l.82-1.01A5.486 5.486 0 0 0 190.14 66c-2.209 0-3.85 1.262-3.85 3.155 0 3.976 6.626 2.335 6.626 5.238 0 .883-.631 1.956-2.587 1.956a4.477 4.477 0 0 1-3.344-1.451l-.821 1.072a5.37 5.37 0 0 0 4.291 1.83l-.252-.315Zm-34.013-34.77v12.62H55.098a10.854 10.854 0 0 1-7.762-3.092 10.916 10.916 0 0 1-3.029-7.383V29.083a11.99 11.99 0 0 1 2.966-8.014 10.538 10.538 0 0 1 7.194-2.965h53.828v23.474h31.551V18.103h15.965v10.98l15.65-10.98h21.077l-22.023 18.3 22.275 18.931h-21.834l-14.766-12.62Zm18.237-6.31 25.241-20.699h-29.027l-11.99 8.709v-8.709h-20.887v23.286H111.26V15.516H54.467a12.622 12.622 0 0 0-9.276 3.723 13.694 13.694 0 0 0-3.345 9.781v15.713a13.63 13.63 0 0 0 3.66 9.087 13.188 13.188 0 0 0 9.592 3.913h103.553v-9.718l11.422 9.528h29.532l-25.178-21.14Z" fill="#85C3D8"/><path fill-rule="evenodd" clip-rule="evenodd" d="M92.33 20.564v8.709H60.145a2.02 2.02 0 0 0-1.514.568 2.146 2.146 0 0 0-.505 1.451v1.199H92.33v8.519H58.127v1.136c.003.488.182.959.505 1.325.376.355.871.558 1.388.568h32.31v8.708H55.413a8.771 8.771 0 0 1-6.31-2.335 8.77 8.77 0 0 1-2.272-5.679V28.894a9.024 9.024 0 0 1 2.271-6.31 8.33 8.33 0 0 1 5.743-2.083h37.483v.063Zm2.65-.063h11.232v23.475h34.518v8.771H94.853V20.501h.127Zm77.238 0h13.441l-18.931 15.713 19.31 16.218h-14.135l-18.174-15.208v15.208h-10.917V20.69h10.98v13.378l18.616-13.378" fill="#85C3D8"/></svg>