<svg width="241" height="96" fill="none" xmlns="http://www.w3.org/2000/svg"><path d="M67.44 13.782H90.65l.573 7.821h-1.373c-.542-3.214-.612-3.91-1.79-5.154-1.176-1.243-3.514-1.165-5.405-1.165h-5.932a1.425 1.425 0 0 0-1.082.39c-.27.333-.403.756-.37 1.182v9.964h2.598a4.271 4.271 0 0 0 3.382-1.486c.862-.99 1.328-2.516 1.396-4.575h1.412v13.976h-1.412c-.068-2.315-.541-3.97-1.42-4.966a4.512 4.512 0 0 0-3.586-1.502h-2.353v11.216a1.193 1.193 0 0 0 .439 1c.436.271.948.392 1.46.345h4.707c5.084 0 8.018-1.658 8.795-8.134h1.475l-.557 9.66H67.441v-1.565h1.279a2.65 2.65 0 0 0 1.694-.415 1.509 1.509 0 0 0 .487-1.212V16.856a1.505 1.505 0 0 0-.4-1.181 1.965 1.965 0 0 0-1.35-.391h-1.71v-1.502Z" fill="#85C3D8"/><path d="M90.162 23.23h10.475v1.392a6.215 6.215 0 0 0-2.401.337.925.925 0 0 0-.526.844c.002.311.072.618.204.9L103 38.028l4.629-10.95c.066-.183.1-.376.102-.57 0-.991-.981-1.61-2.943-1.854V23.23h7.94v1.392a3.822 3.822 0 0 0-1.922.65c-.479.373-.85.867-1.075 1.43l-7.061 16.23h-1.098l-7.533-16.675a2.755 2.755 0 0 0-.996-1.251 9.854 9.854 0 0 0-2.864-.376l-.016-1.4ZM120.126 22.66a8.591 8.591 0 0 1 6.497 2.784 10.254 10.254 0 0 1 2.628 7.336 11.279 11.279 0 0 1-1.177 5.357 8.755 8.755 0 0 1-3.358 3.496 9.074 9.074 0 0 1-4.708 1.291 8.246 8.246 0 0 1-6.276-2.816 10.373 10.373 0 0 1-2.589-7.305 10.37 10.37 0 0 1 2.581-7.289 8.362 8.362 0 0 1 6.402-2.855Zm0 1.446a4.462 4.462 0 0 0-3.766 2.073c-.983 1.382-1.475 3.561-1.475 6.538 0 2.978.489 5.196 1.467 6.656a4.435 4.435 0 0 0 3.774 2.104 4.56 4.56 0 0 0 2.212-.551 4.534 4.534 0 0 0 1.664-1.553c.989-1.402 1.483-3.694 1.483-6.875 0-2.95-.489-5.086-1.467-6.405a4.61 4.61 0 0 0-3.892-1.979v-.008Z" fill="#85C3D8"/><path d="M135.622 13.407v26.13a1.093 1.093 0 0 0 .345.876c.355.277.797.421 1.247.407h1.232v1.564h-9.258V40.82h1.138c.498.034.99-.126 1.373-.446a1.699 1.699 0 0 0 .463-1.267v-21.68a1.852 1.852 0 0 0-.55-1.486 2.748 2.748 0 0 0-1.859-.657h-1.718v-1.502l7.587-.375ZM145.366 22.886v12.678a5.083 5.083 0 0 0 1.177 3.59 3.918 3.918 0 0 0 3.037 1.267 4.98 4.98 0 0 0 3.922-1.846 6.8 6.8 0 0 0 1.57-4.622V26.79a1.813 1.813 0 0 0-.706-1.525 5.035 5.035 0 0 0-2.715-.602V23.23l6.732-.344v15.697a2.182 2.182 0 0 0 .619 1.666 2.4 2.4 0 0 0 1.719.579h1.208v1.369l-6.449.14-.408-3.754a13.956 13.956 0 0 1-3.46 3.043 6.868 6.868 0 0 1-3.515 1.017 5.961 5.961 0 0 1-4.355-1.737c-1.187-1.142-1.781-3.081-1.781-5.819V26.79a1.867 1.867 0 0 0-.847-1.682 5.327 5.327 0 0 0-2.519-.445V23.23l6.771-.344ZM165.813 15.44h1.373v7.822h11.674v1.877h-11.674v12.24a3.539 3.539 0 0 0 .784 2.44 2.458 2.458 0 0 0 1.923.845 2.915 2.915 0 0 0 2.353-1.283c.654-.855 1.036-2.27 1.146-4.247h1.373c-.084 2.545-.664 4.432-1.742 5.663a5.309 5.309 0 0 1-4.197 1.846 5.13 5.13 0 0 1-3.719-1.299 4.519 4.519 0 0 1-1.342-3.394V25.107h-3.335v-1.423a5.37 5.37 0 0 0 3.437-1.9c1.203-1.513 1.852-3.627 1.946-6.344Z" fill="#85C3D8"/><path d="m174.741 23.23 7.634-.227v16.425a1.226 1.226 0 0 0 .33.962c.33.277.753.422 1.185.407h1.38v1.564h-9.328v-1.564h1.263a1.751 1.751 0 0 0 1.318-.438c.302-.354.454-.811.424-1.275V27.438a2.185 2.185 0 0 0-.652-1.72 2.852 2.852 0 0 0-1.945-.58h-1.57l-.039-1.908Zm5.32-9.041a2.224 2.224 0 0 1 1.616.696 2.239 2.239 0 0 1 .698 1.635 2.195 2.195 0 0 1-.674 1.564 2.209 2.209 0 0 1-1.617.672 2.23 2.23 0 0 1-1.632-.68 2.185 2.185 0 0 1-.682-1.564 2.22 2.22 0 0 1 .698-1.611 2.2 2.2 0 0 1 1.593-.704v-.008ZM194.905 22.66a8.588 8.588 0 0 1 6.497 2.784 10.254 10.254 0 0 1 2.636 7.336 11.29 11.29 0 0 1-1.177 5.357 8.76 8.76 0 0 1-3.358 3.496 9.084 9.084 0 0 1-4.708 1.291 8.257 8.257 0 0 1-6.276-2.816 10.363 10.363 0 0 1-2.589-7.305 10.373 10.373 0 0 1 2.565-7.289 8.386 8.386 0 0 1 6.41-2.855Zm0 1.446a4.462 4.462 0 0 0-3.766 2.073c-.983 1.382-1.475 3.561-1.475 6.538 0 2.978.489 5.196 1.467 6.656a4.435 4.435 0 0 0 3.774 2.104 4.555 4.555 0 0 0 3.884-2.104c.989-1.402 1.483-3.694 1.483-6.875 0-2.95-.489-5.086-1.467-6.405a4.622 4.622 0 0 0-3.9-1.979v-.008Z" fill="#85C3D8"/><path d="m203.638 23.23 6.371-.39a31.27 31.27 0 0 1 .572 4.2 9.109 9.109 0 0 1 3.045-3.13 7.594 7.594 0 0 1 3.923-1.04 6.293 6.293 0 0 1 3.193.782A5.253 5.253 0 0 1 222.813 26a8.206 8.206 0 0 1 .785 3.613v9.308a1.946 1.946 0 0 0 .47 1.478c.451.334 1.01.49 1.57.438h.557V42.4h-8.497v-1.564h.164a3.091 3.091 0 0 0 1.883-.43 1.558 1.558 0 0 0 .534-1.29v-8.19a7.512 7.512 0 0 0-.785-3.957 3.812 3.812 0 0 0-1.483-1.395 3.833 3.833 0 0 0-1.992-.435 4.822 4.822 0 0 0-3.861 1.853 7.324 7.324 0 0 0-1.569 4.841v7.079a1.936 1.936 0 0 0 .479 1.478c.454.328 1.01.483 1.569.438h.541v1.564h-8.56v-1.564h.534a2.43 2.43 0 0 0 1.522-.407 1.238 1.238 0 0 0 .526-1.017V27.078a2.448 2.448 0 0 0-.667-1.854 2.673 2.673 0 0 0-1.915-.633h-.98v-1.36ZM100.315 48.65l1.679-3.02h1.373l.785 12.045h-1.334c-1.046-3.462-2.252-5.968-3.617-7.516a8 8 0 0 0-6.096-2.957 7.918 7.918 0 0 0-4.708 1.494 9.292 9.292 0 0 0-3.201 4.466c-.737 1.987-1.114 3.989-1.114 7.595a19.293 19.293 0 0 0 1.114 7.406 9.08 9.08 0 0 0 3.076 4.357 7.73 7.73 0 0 0 4.605 1.392 7.38 7.38 0 0 0 5.532-2.003 7.092 7.092 0 0 0 1.953-5.162v-2.839a1.193 1.193 0 0 0-.518-1.04 3.045 3.045 0 0 0-1.71-.367h-2.558v-1.432h11.801V62.5h-.926a2.627 2.627 0 0 0-1.64.4 1.407 1.407 0 0 0-.486 1.15v11.52h-1.342a95.354 95.354 0 0 0-1.569-5.162 10.795 10.795 0 0 1-3.657 3.762 9.233 9.233 0 0 1-4.801 1.26 13.55 13.55 0 0 1-7.062-1.956A13.854 13.854 0 0 1 80.7 67.96a13.85 13.85 0 0 1-1.86-7.25c-.05-2.558.607-5.08 1.9-7.29a14.926 14.926 0 0 1 5.21-5.67 12.344 12.344 0 0 1 6.684-2.104 10.582 10.582 0 0 1 3.68.641 15.522 15.522 0 0 1 4.001 2.362ZM127.776 73.349l.322.563c0 1.08-1.303.962-2.519.962-.926 0-2.785-.047-3.429-.532-.643-.485-.902-1.04-1.381-2.307a12.282 12.282 0 0 1-3.46 2.753 8.375 8.375 0 0 1-3.538.68 6.906 6.906 0 0 1-4.488-1.267 4.024 4.024 0 0 1-1.569-3.246c0-1.986 1.172-3.637 3.515-4.95a24.907 24.907 0 0 1 9.344-2.62v-2.926a3.408 3.408 0 0 0-1.247-2.651 4.616 4.616 0 0 0-3.139-1.103 6.086 6.086 0 0 0-3.067.735c-.612.37-.918.73-.918 1.08.073.357.244.687.494.954.345.411.554.92.596 1.455a2.001 2.001 0 0 1-.596 1.501 2.114 2.114 0 0 1-1.569.579 2.31 2.31 0 0 1-1.711-.688 2.424 2.424 0 0 1-.682-1.775c0-1.351.761-2.582 2.283-3.692a9.894 9.894 0 0 1 5.986-1.674c2.276 0 4.015.49 5.218 1.47a4.525 4.525 0 0 1 1.805 3.614v10.441a3.112 3.112 0 0 0 .455 1.799 1.664 1.664 0 0 0 1.074.782c.738.075 1.48.096 2.221.063Zm-7.132-8.643c-3.468.48-5.924 1.262-7.367 2.346a4.091 4.091 0 0 0-1.617 3.473 3.42 3.42 0 0 0 .84 2.456 2.861 2.861 0 0 0 2.189.884 5.652 5.652 0 0 0 4.19-1.822 6.316 6.316 0 0 0 1.773-4.583l-.008-2.754Z" fill="#85C3D8"/><path d="m127.07 55.743 5.492-.344c.285 1.339.482 2.695.588 4.06a10.56 10.56 0 0 1 3.139-3.13 6.637 6.637 0 0 1 3.428-.915 5.096 5.096 0 0 1 3.28 1.033 6.639 6.639 0 0 1 1.985 3.379 10.369 10.369 0 0 1 3.044-3.316 6.55 6.55 0 0 1 3.656-1.096 4.856 4.856 0 0 1 3.923 1.565 8.03 8.03 0 0 1 1.679 5.264v9.463a1.347 1.347 0 0 0 .432 1.165 2.641 2.641 0 0 0 1.702.47h.958v1.564h-9.651v-1.564h.965a2.752 2.752 0 0 0 1.718-.407 1.51 1.51 0 0 0 .495-1.228v-9.503a4.766 4.766 0 0 0-1.02-3.292 3.49 3.49 0 0 0-2.739-1.166 4.158 4.158 0 0 0-2.353.68 4.568 4.568 0 0 0-1.632 1.956 7.395 7.395 0 0 0-.879 3.09v8.235a1.56 1.56 0 0 0 .447 1.236c.402.298.898.44 1.397.399h1.31v1.564h-9.792v-1.564h1.107c.554.043 1.106-.1 1.569-.407a1.288 1.288 0 0 0 .518-1.04v-8.838c0-1.867-.332-3.22-.997-4.06a3.219 3.219 0 0 0-2.675-1.266 4.011 4.011 0 0 0-3.327 1.486 7.567 7.567 0 0 0-1.655 4.857v7.633a1.501 1.501 0 0 0 .392 1.205 2.793 2.793 0 0 0 1.718.43h.981v1.564h-9.69v-1.564h1.452c.458.032.91-.114 1.263-.407a1.359 1.359 0 0 0 .439-1.04V59.38a2.038 2.038 0 0 0-.533-1.564 3.674 3.674 0 0 0-2.134-.657v-1.416Z" fill="#85C3D8"/><path d="m160.783 55.743 6.842-.227v16.425a1.21 1.21 0 0 0 .33.962 1.76 1.76 0 0 0 1.192.406h2.174v1.565h-11.714V73.31h2.816a1.749 1.749 0 0 0 1.318-.439 1.76 1.76 0 0 0 .416-1.274V59.583a2.18 2.18 0 0 0-.651-1.728 2.847 2.847 0 0 0-1.946-.579h-.784l.007-1.533Zm4.528-9.041a2.218 2.218 0 0 1 1.616.696 2.238 2.238 0 0 1 .698 1.634 2.165 2.165 0 0 1-.675 1.565 2.293 2.293 0 0 1-3.889-1.838 2.28 2.28 0 0 1 1.179-1.791c.328-.18.696-.277 1.071-.282v.016Z" fill="#85C3D8"/><path d="m170.756 55.743 6.37-.39c.286 1.385.477 2.788.573 4.199a9.114 9.114 0 0 1 3.044-3.129 7.607 7.607 0 0 1 3.963-1.04 6.292 6.292 0 0 1 3.193.782 5.23 5.23 0 0 1 2.071 2.347 8.235 8.235 0 0 1 .785 3.613v9.308a1.945 1.945 0 0 0 .47 1.478c.451.334 1.01.49 1.57.438h.557v1.564h-8.537v-1.564h.165a3.09 3.09 0 0 0 1.883-.43 1.571 1.571 0 0 0 .542-1.26v-8.22a7.56 7.56 0 0 0-.785-3.965 3.827 3.827 0 0 0-3.484-1.838 4.83 4.83 0 0 0-3.86 1.853 7.33 7.33 0 0 0-1.569 4.842v7.078a1.919 1.919 0 0 0 .479 1.478c.454.328 1.01.483 1.569.438h.541v1.564h-9.368v-1.564h1.334a2.437 2.437 0 0 0 1.522-.407 1.249 1.249 0 0 0 .526-1.024V59.56a2.432 2.432 0 0 0-.667-1.854 2.667 2.667 0 0 0-1.915-.633h-.98l.008-1.33ZM207.874 56.799c1.366-1.377 5.179-3.387 6.395-3.434a2.569 2.569 0 0 1 1.954.54c.447.438-.361 1.416-.361 2.041a1.78 1.78 0 0 1-.455 1.252 1.411 1.411 0 0 1-1.075.5c-.78 0-1.303-.477-1.57-1.431-.109-.407-.295-.61-.557-.61a10.339 10.339 0 0 0-3.365 1.955c.494.64.9 1.342 1.208 2.088.222.612.333 1.258.329 1.909a5.733 5.733 0 0 1-.863 3.128 7.231 7.231 0 0 1-2.856 2.394 8.264 8.264 0 0 1-3.821 1.04h-2.228a6.726 6.726 0 0 0-3.138.493 1.687 1.687 0 0 0-.785 1.493 1.398 1.398 0 0 0 .636 1.228 4.72 4.72 0 0 0 2.393.43l5.053-.101c2.552 0 4.383.425 5.492 1.275a4.147 4.147 0 0 1 1.686 3.496 5.243 5.243 0 0 1-1.922 4.122c-1.789 1.564-4.459 2.346-8.01 2.346-2.935 0-5.111-.537-6.528-1.611a3.572 3.572 0 0 1-1.679-2.84 2.968 2.968 0 0 1 1.098-2.15 7.359 7.359 0 0 1 3.617-1.486 6.808 6.808 0 0 1-3.052-1.44 3.12 3.12 0 0 1-1.02-2.346 3.396 3.396 0 0 1 .8-2.291 6.481 6.481 0 0 1 2.88-1.666 7.143 7.143 0 0 1-2.621-2.347 5.605 5.605 0 0 1-.878-3.128 5.866 5.866 0 0 1 2.189-4.607 8.435 8.435 0 0 1 5.688-1.877 9.357 9.357 0 0 1 2.762.407 9.753 9.753 0 0 1 2.604 1.228Zm-4.174 18.06c-2.51 0-4.302.346-5.374 1.04a2.991 2.991 0 0 0-1.608 2.51 2.482 2.482 0 0 0 1.208 2.182 8.174 8.174 0 0 0 4.543 1.064c2.348 0 4.116-.389 5.303-1.166 1.188-.776 1.784-1.634 1.789-2.573a2.525 2.525 0 0 0-.557-1.564 3.427 3.427 0 0 0-1.765-1.103 12.592 12.592 0 0 0-3.539-.367v-.024Zm-1.208-18.412a3.854 3.854 0 0 0-3.013 1.337 5.462 5.462 0 0 0-1.184 3.747 6.054 6.054 0 0 0 1.184 3.988 3.958 3.958 0 0 0 3.016 1.418 3.97 3.97 0 0 0 3.034-1.378 5.903 5.903 0 0 0 1.176-3.911 5.581 5.581 0 0 0-1.2-3.778 3.818 3.818 0 0 0-3.013-1.4v-.023Z" fill="#85C3D8"/><path d="M214.999 53.506c.617.01 1.206.262 1.639.701.433.439.675 1.03.675 1.645a2.165 2.165 0 0 1-.675 1.565 2.286 2.286 0 0 1-2.061.611 2.293 2.293 0 0 1-1.662-1.361 2.28 2.28 0 0 1 1.019-2.882 2.294 2.294 0 0 1 1.072-.279h-.007ZM55.044 71.784h-.761v-1.243h.345c.265-.028.533.001.785.086a.572.572 0 0 1 .322.54.625.625 0 0 1-.714.625l.023-.008Zm1.46-.602a1.216 1.216 0 0 0-.456-1.001 1.802 1.802 0 0 0-1.255-.29H53.53v4.036h.785v-1.486h.674l.785 1.502h.863l-.902-1.642a1.114 1.114 0 0 0 .784-1.111l-.015-.008Zm-1.554 3.919a3.145 3.145 0 0 1-2.9-1.932 3.12 3.12 0 0 1 .68-3.41 3.142 3.142 0 0 1 5.358 2.213c0 .83-.33 1.626-.919 2.212a3.143 3.143 0 0 1-2.219.917Zm0-7.04c-.776 0-1.534.23-2.18.66a3.9 3.9 0 0 0-.594 6.017 3.926 3.926 0 0 0 4.275.847 3.92 3.92 0 0 0 1.76-1.44 3.902 3.902 0 0 0-.487-4.938 3.93 3.93 0 0 0-2.774-1.145ZM13.296 16.754c18.83-10.042 43.23.548 45.066 26.115-34.992 2.738-39.206-12.967-45.066-26.115Z" fill="#85C3D8"/><path d="M13.296 71.573c18.83 10.043 43.23-.547 45.066-26.115-34.992-2.737-39.206 12.96-45.066 26.115Z" fill="#85C3D8"/><path d="M51.827 24.732C42.954 12.96 26.69 9.613 13.226 16.778c5.249 11.778 9.18 25.599 35.079 26.389a29.92 29.92 0 0 0 3.773-14.587 30.3 30.3 0 0 0-.25-3.848Zm-32.254 33.89c.785.054 1.506.093 2.275.093a30.274 30.274 0 0 0 14.287-3.574 30.166 30.166 0 0 0 10.89-9.886c-15.566.758-22.886 6.398-27.452 13.366Z" fill="#85C3D8"/></svg>