<svg width="240" height="96" fill="none" xmlns="http://www.w3.org/2000/svg"><g clip-path="url(#a)" fill="#96C8D8"><path d="M48.919 80.104c0 1.767-1.367 3.418-3.901 3.418-1.784 0-3.068-.55-3.935-1.017v-1.567c.984.567 2.484 1.133 3.935 1.133 1.633 0 2.267-.867 2.267-1.967 0-.833-.583-1.617-1.767-1.867l-1.684-.366C42.084 77.487 41 76.486 41 74.653c0-1.784 1.467-3.301 4.117-3.301 1.35 0 2.334.317 3.201.684v1.6c-.983-.5-2.117-.85-3.2-.85-1.534 0-2.518.717-2.518 1.867 0 .916.517 1.5 1.517 1.717l1.768.383c1.967.433 3.034 1.634 3.034 3.351ZM62.805 77.987v5.285h-1.5V78.37c0-1.217-.7-1.933-1.7-1.933-.834 0-1.5.383-2.018 1.033.017.166.034.334.034.517v5.285h-1.484V78.37c0-1.217-.667-1.933-1.667-1.933-.85 0-1.517.416-2.034 1.067v5.767h-1.5V75.27h1.467v.767c.55-.567 1.35-1.033 2.417-1.033.917 0 1.75.367 2.25 1.1.45-.433 1.334-1.1 2.768-1.1 1.533 0 2.967 1.033 2.967 2.984M70.157 81.438v-1.467c-.3-.234-1.083-.6-2-.6-1.017 0-1.783.483-1.783 1.35 0 .933.766 1.517 1.783 1.517.95 0 1.7-.5 2-.8Zm-5.35-.717c0-1.65 1.45-2.6 3.084-2.6.9 0 1.75.216 2.266.5v-.85c0-.784-.6-1.434-1.833-1.434-1.167 0-2.318.45-3.051.916v-1.516a6.641 6.641 0 0 1 3.05-.734c2.385 0 3.335 1.367 3.335 2.934v5.335h-1.45v-.65c-.484.466-1.3.9-2.317.9-1.801 0-3.085-1.017-3.085-2.801ZM73.992 75.27h1.467v1.383c.417-1.067 1.4-1.65 2.45-1.65.25 0 .434.034.551.05v1.667c-.234-.033-.5-.05-.717-.05-1.317 0-2.034.867-2.25 1.633v4.969h-1.501v-8.003ZM80.994 81.305v-4.702h-1.45V75.27h1.55v-2.367l1.4-.833v3.2h1.95v1.334h-1.95v4.468c0 .733.4 1.1 1.2 1.1.267 0 .567-.05.75-.116v1.3c-.133.05-.666.167-1.2.167-1.367 0-2.25-.767-2.25-2.217ZM91.58 71.602h1.6l4.402 7.185 4.434-7.185h1.567v11.67h-1.534v-8.936l-4.4 7.102h-.168l-4.367-7.102v8.936H91.58v-11.67ZM112.602 79.254c0-1.85-1.267-2.834-2.634-2.834s-2.634.983-2.634 2.834c0 1.867 1.267 2.85 2.634 2.85s2.634-.983 2.634-2.85Zm-6.851 0c0-2.434 1.783-4.25 4.217-4.25 2.434 0 4.218 1.816 4.218 4.25 0 2.45-1.784 4.268-4.218 4.268s-4.217-1.818-4.217-4.268ZM114.853 75.27h1.717l2.417 6.201 2.434-6.202h1.634l-3.284 8.002h-1.584l-3.334-8.002ZM129.94 78.554c-.033-1.267-.833-2.168-2.284-2.168-1.317 0-2.201 1.017-2.267 2.168h4.551Zm-6.218.683c0-2.567 1.817-4.234 3.934-4.234 2.484 0 3.918 1.8 3.918 4.317 0 .2-.017.434-.034.534h-6.201c.067 1.334 1.15 2.284 2.5 2.284 1.301 0 2.268-.367 3.351-1.217v1.483c-.683.534-1.717 1.118-3.351 1.118-2.233 0-4.117-1.45-4.117-4.285ZM191.276 25.453c3.626 0 6.726-3.1 6.726-6.727 0-3.626-3.1-6.726-6.726-6.726-3.693 0-6.793 3.1-6.793 6.726 0 3.627 3.1 6.727 6.793 6.727ZM41.179 58.41h29.205v-9.575H51.353v-6.763h17.176v-9.276H51.353v-7.002h19.031v-9.277H41.18v41.894Zm32.795 0h27.291v-8.258H87.201l13.765-13.407v-7.899H74.214v8.08H87.74L73.974 50.33v8.08Zm42.432.959c3.651 0 6.165-1.377 7.96-3.113v2.154h9.755V28.846h-9.875v18.911c-1.137 1.617-2.753 2.634-4.608 2.634-2.394 0-4.01-1.616-4.01-4.19V28.847h-9.875v19.81c0 6.882 5.147 10.712 10.653 10.712Zm37.166 11.968c10.473 0 15.38-5.146 15.38-13.884V28.846h-9.874v1.676c-1.796-1.676-4.429-2.634-7.362-2.634-8.079 0-13.406 6.045-13.406 14.483 0 8.558 5.327 14.723 13.406 14.723 2.933 0 5.566-1.197 7.362-2.633v2.992c0 3.232-1.856 4.908-6.105 4.908-3.412 0-8.019-1.317-11.97-4.07v9.576c2.514 1.615 7.541 3.47 12.569 3.47Zm.119-22.921c-3.411 0-5.207-2.753-5.207-6.045 0-3.172 1.796-5.805 5.207-5.805 1.915 0 3.89.778 5.387 2.335v7.121c-1.497 1.556-3.472 2.394-5.387 2.394Zm20.348 9.995h9.875V28.845h-9.875V58.41Z"/><path d="M143.492 51.953v-.048h-2.421v-.095h-.047v-.095h-.048v-.047h-.047v-.095h-.048v-.048h-.047v-.095h-.047v-.047h-.048v-.095h-.047v-.047h-.048v-.095h-.047v-.048h-.048v-.095h-.047v-.047h-.048v-.095h-.047v-.095h-.048v-.095h-.047v-.048h-.048v-.095h-.047v-.094h-.048v-.095h-.047v-.095h-.048v-.095h-.047v-.095h-.048v-.095h-.047v-.095h-.047v-.095h-.048v-.095h-.047v-.095h-.048v-.095h-.047v-.142h-.048v-.095h-.047v-.143h-.048v-.095h-.047v-.142h-.048v-.095h-.047v-.095h-.048v-.142h-.047v-.095h-.048v-.143h-.047v-.142h-.048v-.19h-.047v-.143h-.047v-.142h-.048v-.19h-.047v-.142h-.048v-.143h-.047v-.142h-.048v-.19h-.047v-.237h-.048v-.238h-.047v-.237h-.048v-.237h-.047v-.19h-.048v-.238h-.047v-.427h-.048v-.38h-.047v-.38h-.048v-.474h-.047v-.902h-.048v-1.14h.048v-.854h.047v-.475h.048v-.38h.047v-.38h.048v-.426h.047v-.19h.048v-.238h.047v-.237h.048v-.19h.047v-.237h.048v-.238h.047v-.19h.048v-.142h.047v-.142h.048v-.19h.047v-.143h.048V37h.047v-.143h.047v-.19h.048v-.142h.047v-.095h.048v-.142h.047v-.095h.048v-.143h.047v-.094h.048v-.143h.047v-.095h.048v-.095h.047v-.142h.048v-.095h.047v-.143h.048v-.094h.047v-.096h.048v-.047h.047v-.095h.047v-.095h.048v-.095h.047v-.095h.048v-.095h.047v-.095h.048v-.095h.047v-.095h.048v-.047h.047v-.095h.048v-.095h.047v-.095h.048v-.047h.047v-.095h.048v-.048h.047v-.095h.048v-.047h.047v-.095h.048v-.047h.047v-.096h.047v-.047h.048v-.095h.047v-.047h.048v-.095h.047v-.048h.048v-.095h.047v-.047h.048v-.048h.047v-.047h.048v-.048h.047v-.095h.048v-.047h.047v-.048h.048v-.047h.047v-.095h.048v-.047h.047v-.048h.047v-.047h.048v-.048h.047v-.095h.048v-.047h.047v-.048h.048v-.047h.047v-.048h.048v-.047h.047v-.048h.048v-.047h.047v-.047h.048v-.048h.047v-.047h.048v-.048h.047v-.047h.048v-.048h.047v-.047h.048v-.048h.047v-.047h.047v-.048h.048v-.047h.047v-.048h.048v-.047h.047v-.048h.048v-.047h.047v-.048h.048v-.047h.047v-.048h.095v-.047h.048v-.047h.047v-.048h.048v-.047h.095v-.048h.047v-.047h.047v-.048h.048v-.047h.095v-.048h.047v-.047h.048V30.4h.047v-.047h.095v-.048h.048v-.047h.047v-.048h.095v-.047h.048v-.048h.095v-.047h.047v-.048h.095v-.047h.095v-.047h.047v-.048h.095v-.047h.048v-.048h.095v-.047h.095v-.048h.047v-.047h.095v-.048h.048v-.047h.095v-.048h.094v-.047h.095v-.048h.095v-.047h.095v-.048h.095v-.047h.095v-.048h.095v-.047h.095v-.047h.095v-.048h.095v-.048h.095v-.047h.095v-.047h.142v-.048h.143v-.047h.095v-.048h.142v-.047h.142v-.048h.143v-.047h.095v-.048h.142v-.047h.143V28.5h.095v-.047h.19v-.048h.189v-.047h.19v-.048h.19v-.047h.19v-.047h.19v-.048h.19v-.047h.332v-.048h.332v-.047h.333v-.048h.285v-.047h.569v-.048h2.184v.048h.38v.047h.38v.048h.379v.047h.19v.048h.238v.047h.237v.047h.19v.048h.19v.047h.142v.048h.19v.047h.142v.048h.143v.047h.142v.048h.143v.047h.142v.048h.095v.047h.142v.048h.095v.047h.095v.048h.143v.047h.095v.048h.095v.047h.095v.047h.095v.048h.094v.047h.095v.048h.095v.047h.095v.048h.095v.047h.048v.048h.095v.047h.095v.048h.047v.047h.095v.048h.048v.047h.094v.048h.048v.047h.095v.048h.047v.047h.095v.048h.048v.047h.095v.047h.047v.048h.048v.047h.047v.048h.095v.047h.048v.048h.047v.047h.047v.048h.095v.047h.048v.048h.047v.047h.048v.048h.047v-1.614h9.922v21.552h-.095v.047h-.332v.048h-.333v.047h-.427v.048h-.38v.047h-.427v.048h-.38v.047h-.379v.048h-.428v.047h-.379v.048h-.428v.047h-.379v.048h-.38v.047h-.427v.048h-.523v.047h-.522v.048h-.522v.047h-.57v.047h-.522v.048h-.522v.048h-.57v.047h-.522v.047h-.522v.048h-.76v.047h-.854v.048h-.807v.047h-.807v.048h-.807v.047h-.807v.048h-1.235v.047h-1.376v.048h-1.377v.047h-5.317v.048h-1.377Zm-9.589-.238v-.047h-.854v-.048h-.855v-.047h-.854v-.048h-.807v-.047h-.855v-.048h-.76v-.047h-.569v-.047h-.617v-.048h-.617v-.047h-.618v-.048h-.617v-.047h-.569v-.048h-.618v-.047h-.474v-.048h-.475v-.047h-.475v-.048h-.474v-.047h-.475v-.048h-.475v-.047h-.427v-.048h-.475v-.047h-.475v-.048h-.427v-.047h-.38v-.048h-.379v-.047h-.38v-.047h-.38v-.048h-.38v-.047h-.379v-.048h-.38v-.047h-.38v-.048h-.38v-.047h-.427V50.1h-.332v-.047h-.285v-.048h-.333v-.047h-.332v-.048h-.332v-.047h-.285v-.048h-.332v-.047h-.333v-.048h-.332v-.047h-.285v-.047h-.332v-.048h-.332v-.047h-.333v-.048h-.237v-.047h-.285v-.048h-.285v-.047h-.284v-.048h-.285v-.047h-.238v-.048h-.285v-.047h-.284v-.048h-.285v-.047h-.238v-.048h-.284v-.047h-.285v-.048h-.285v-.047h-.285v-.048h-.237v-.047h-.238v-.047h-.237v-.048h-.237v-.047h-.238v-.048h-.237v-.047h-.237v-.048h-.238v-.047h-.237v-.048h-.237v-.047h-.048V28.834h9.922v17.992h.047v.332h.048v.19h.047v.19h.048v.19h.047v.142h.048v.142h.047v.095h.048v.095h.047v.095h.047v.095h.048v.095h.047v.095h.048v.095h.047v.047h.048v.048h.047v.095h.048v.047h.047v.048h.048v.047h.047v.095h.048v.048h.047v.047h.048v.048h.047v.047h.048v.048h.047v.047h.047v.048h.095v.047h.048v.047h.047v.048h.048v.047h.047v.048h.095v.047h.048v.048h.095v.047h.095v.048h.095v.047h.095v.048h.094v.047h.095v.048h.095v.047h.143v.048h.19v.047h.142v.048h.19v.047h.285v.048h.427v.047h.427v-.047h.475v-.048h.237v-.047h.238v-.048h.19v-.047h.142V50.1h.142v-.047h.095v-.048h.143v-.047h.142v-.048h.095v-.047h.095v-.048h.095v-.047h.095v-.048h.095v-.047h.047v-.047h.095v-.048h.048v-.047h.095v-.048h.047v-.047h.095v-.048h.048v-.047h.095v-.048h.047v-.047h.048v-.048h.095v-.047h.047v-.048h.047v-.047h.048v-.048h.047v-.047h.095v-.048h.048v-.047h.047v-.048h.048v-.047h.047v-.047h.048v-.048h.047v-.047h.048v-.048h.047v-.047h.048v-.048h.047v-.047h.048v-.095h.047v-.048h.047v-.047h.048v-.048h.047v-.047h.048v-.095h.047v-.048h.048v-.047h.047v-.048h.048v-.095h.047v-.047h.048V28.834h9.921v22.881h-.237Zm40.114-2.136V28.834h9.922V47.49h-.143v.048h-.19v.047h-.189v.048h-.19v.047h-.19v.048h-.19v.047h-.19v.047h-.19v.048h-.19v.047h-.19v.048h-.19v.047h-.142v.048h-.237v.047h-.19v.048h-.238v.047h-.189v.048h-.238v.047h-.237v.048h-.19v.047h-.237v.048h-.19v.047h-.238v.048h-.237v.047h-.19v.048h-.237v.047h-.238v.047h-.19v.048h-.237v.047h-.19v.048h-.237v.047h-.238v.048h-.189v.047h-.238v.048h-.285v.047h-.237v.048h-.285v.047h-.237v.048h-.285v.047h-.237v.048h-.285v.047h-.238v.048h-.284v.047h-.238v.047h-.285v.048h-.237Zm-20.793-1.234v.047h.95v-.047h.427v-.048h.285v-.047h.285v-.048h.142v-.047h.19v-.048h.19v-.047h.142v-.048h.143v-.047h.095v-.048h.142v-.047h.142v-.047h.095v-.048h.143v-.047h.095v-.048h.095v-.047h.095v-.048h.095v-.047h.094v-.048h.095v-.047h.048v-.048h.095v-.047h.095V47.3h.047v-.047h.095v-.048h.048v-.047h.095v-.048h.095v-.047h.047v-.047h.048v-.048h.094v-.047h.048v-.048h.047v-.047h.095v-.048h.048v-.047h.047v-.048h.095v-.047h.048v-.048h.047v-.047h.048v-.048h.047v-.047h.048v-.048h.095v-.047h.047v-.048h.047v-.047h.048v-.047h.047v-.048h.048v-.047h.047v-.048h.048v-.047h.047v-7.121h-.047v-.048h-.048v-.047h-.047v-.048h-.048v-.047h-.047v-.048h-.048v-.047h-.094v-.047h-.048v-.048h-.047v-.047h-.048v-.048h-.047v-.047h-.048v-.048h-.047v-.047h-.095v-.048h-.048v-.047h-.047v-.048h-.095v-.047h-.048v-.048h-.047v-.047h-.095v-.048h-.047v-.047h-.048v-.048h-.095v-.047h-.095v-.048h-.047v-.047h-.095v-.047h-.095v-.048h-.048v-.047h-.095v-.048h-.095v-.047h-.095v-.048h-.094v-.047h-.095v-.048h-.095v-.047h-.095v-.048h-.095v-.047h-.095v-.048h-.143v-.047h-.142v-.048h-.095V37h-.142v-.048h-.143v-.047h-.142v-.048h-.19v-.047h-.19v-.047h-.19v-.048h-.332v-.047h-.285v-.048h-.57v-.047h-.474v.047h-.523v.048h-.284v.047h-.238v.047h-.19v.048h-.19v.047h-.142v.048h-.095v.047h-.142V37h-.143v.047h-.095v.048h-.095v.047h-.095v.048h-.095v.047h-.047v.048h-.095v.047h-.095v.048h-.047v.047h-.095v.048h-.048v.047h-.095v.047h-.047v.048h-.048v.047h-.047v.048h-.048v.047h-.095v.048h-.047v.047h-.048v.048h-.047v.047h-.047v.048h-.048v.047h-.047v.048h-.048v.047h-.047v.048h-.048v.047h-.047v.095h-.048v.048h-.047v.047h-.048v.095h-.047v.047h-.048v.048h-.047v.095h-.048v.047h-.047v.095h-.048v.048h-.047v.095h-.047v.095h-.048v.047h-.047v.143h-.048v.095h-.047v.094h-.048v.095h-.047v.095h-.048v.143h-.047v.095h-.048v.142h-.047v.142h-.048v.19h-.047v.143h-.048v.19h-.047v.237h-.048v.285h-.047v.427h-.048v1.472h.048v.474h.047v.238h.048v.285h.047v.19h.048v.142h.047v.19h.048v.142h.047v.143h.048v.142h.047v.143h.048v.094h.047v.095h.048v.095h.047v.095h.048v.143h.047v.047h.048v.095h.047v.095h.047v.095h.048v.047h.047v.096h.048v.047h.047v.095h.048v.047h.047v.048h.048v.095h.047v.047h.048v.048h.047v.095h.048v.047h.047v.048h.048v.047h.047v.048h.048v.047h.047v.047h.047v.048h.048v.047h.047v.048h.048v.047h.047v.048h.048v.047h.095v.048h.047v.047h.048v.048h.095v.047h.047v.048h.048v.047h.095v.048h.047v.047h.095v.048h.095v.047h.095v.047h.047v.048h.095v.047h.095v.048h.143v.047h.095v.048h.142v.047h.142v.048h.143v.047h.19v.048h.19v.047h.284v.048h.38Zm-60.86-3.323v-.048h-.142v-.047h-.142v-.048h-.142v-.047h-.143v-.048h-.19v-.047h-.142v-.048h-.142v-.047h-.143v-.048h-.19v-.047h-.142V44.5h-.143v-.048h-.142v-.047h-.143v-.048h-.19v-.047h-.094v-.048h-.143v-.047h-.142v-.048h-.142v-.047h-.143v-.048h-.142v-.047h-.143v-.048h-.142v-.047h-.143v-.048h-.142v-.047h-.142v-.048h-.143v-.047h-.142v-.048h-.143v-.047h-.142v-.048h-.095v-.047h-.142v-.047h-.143v-.048h-.142v-.047h-.143v-.048h-.142v-.047h-.143v-.048h-.142v-.047h-.142v-.048h-.095v-.047h-.143v-.048h-.142v-.047h-.095v-.048h-.142v-.047h-.143v-.048h-.095v-.047h-.142v-.047h-.143v-.048h-.095v-.047h-.142v-.048h-.142v-.047h-.096v-.048h-.142v-.047h-.142v-.048h-.095v-.047h-.143v-.048h-.142v-.047h-.142v-.048h-.095v-.047h-.143v-.048h-.142v-.047h-.095v-.048h-.143v-.047h-.095v-.048h-.095v-.047h-.142v-.047h-.095v-.048h-.142v-.047h-.095v-.048h-.143V41.7h-.095v-.048h-.094v-.047h.047v-.048h.047v-.047h.048v-.048h.047v-.047h.048v-.048h.047v-.047h.048v-.048h.047v-.047h.048v-.048h.047v-.047h.048v-.047h.047v-.048h.048v-.047h.047v-.048h.047v-.047h.048v-.048h.047v-.047h.048v-.048h.047v-.047h.048v-.048h.047v-.047h.048v-.048h.047v-.047h.095v-.048h.048v-.047h.047v-.048h.048v-.047h.047v-.047h.048v-.048h.047v-.047h.048v-.048h.047v-.047h.047v-.048h.048v-.047h.047v-.048h.048v-.047h.047v-.048h.048V39.8h.047v-.048h.048v-.047h.047v-.048h.048v-.047h.047v-.048h.048v-.047h.047v-.048h.048v-.047h.047v-.047h.048v-.048h.047v-.047h.047v-.048h.048v-.047h.047v-.048h.048v-.047h.047v-.048h.048v-.047h.047v-.048h.048v-.047h.047v-.048h.048v-.047h.047v-.048h.048v-.047h.095v-.048h.047v-.047h.048v-.047h.047v-.048h.048v-.047h.047v-.048h.047v-.047h.048v-.048h.047v-.047h.048v-.048h.047v-.047h.048v-.048h.047v-.047h.048v-.048h.047v-.047h.048v-.048h.047v-.047h.048v-.048h.047v-.047h.048v-.048h.047v-.047h.048v-.047h.047v-.048H87v-.047h.048v-.048h.047v-.047h.048v-.048h.047v-.047h.048v-.048h.047v-.047h.048v-.048h.047v-.047h.048v-.048h.047v-.047h.048v-.048h.047V37h.048v-.048H74.183v-8.117h26.822v7.927h-.048v.048h-.047v.047h-.048v.048h-.047v.047h-.048V37h-.047v.047h-.047v.048h-.048v.047h-.047v.048h-.048v.047h-.047v.048h-.048v.047h-.047v.048h-.048v.047h-.047v.048h-.048v.047h-.047v.047h-.048v.048h-.047v.047h-.048v.048h-.047v.047h-.048v.048h-.047v.047h-.047v.048h-.048v.047h-.047v.048h-.048v.047h-.047v.048h-.048v.047h-.047v.048h-.048v.047h-.047v.048h-.095v.047h-.048v.048h-.047v.047h-.048v.047h-.047v.048h-.048v.047h-.047v.048h-.047v.047h-.048v.048h-.047v.047h-.048v.048h-.047v.047h-.048v.048h-.047v.047h-.048v.048h-.047v.047h-.048v.048h-.047v.047h-.048v.048h-.047v.047h-.048v.048h-.047v.047h-.048v.047H98.3v.048h-.048v.047h-.047v.048h-.047v.047h-.048v.048h-.047v.047h-.048v.048h-.047v.047h-.048v.048h-.047v.047h-.048v.048h-.047v.047h-.048v.048h-.047v.047h-.095v.048h-.048v.047h-.047v.047h-.048v.048h-.047v.048h-.047v.047h-.048v.047h-.048v.048h-.047v.047h-.047v.048h-.048v.047h-.047v.048h-.048v.047h-.047v.048h-.048v.047h-.047v.048h-.048v.047h-.047v.048h-.048v.047h-.047v.047h-.048v.048h-.047v.047h-.048v.048h-.047v.047h-.047v.048H96.4v.047h-.047v.048h-.048v.047h-.047v.048h-.048v.047h-.047v.048h-.048v.047h-.047v.048h-.048v.047h-.047v.048h-.048v.047h-.047v.048h-.095v.047h-.048v.047h-.047v.048h-.047v.047h-.048v.048h-.047v.047h-.048v.048h-.047v.047h-.048v.048h-.047v.047h-.048v.048h-.047v.047h-.048v.048h-.047v.047h-.048v.048h-.047v.047h-.048v.048h-.047v.047h-.048v.047h-.047v.048h-.047v.047h-.048v.048h-.047v.047h-.048v.048h-.047v.047h-.048v.048h-.047v.047H94.5v.048h-.047v.047h-.048v.048h-.047v.047h-.048v.048h-.047v.047h-.048v.048h-.047v.047h-.048v.048h-.047v.047h-.048v.047h-.094v.048h-.048v.047h-.047v.048h-.048v.047h-.047v.048h-.048v.047h-.047v.048h-.048v.047h-.047v.048h-.048v.047h-.047v.048h-.048v.047h-.047v.048h-.048v.047h-.047v.048h-.048v.047h-.047v.047h-.047v.048h-.048v.047h-.047v.048h-.048v.047h-.047v.048h-.048v.047h-.047v.048h-.048v.047h-.047v.048h-.048v.047h-.047v.048h-.048v.047h-.047v.048h-.19ZM68.487 34.53v-.047h-.095v-.048h-.047v-.047h-.095v-.048h-.095v-.047h-.047v-.047h-.095v-.048h-.048v-.047h-.095v-.048h-.095v-.047h-.047v-.048h-.095v-.047h-.048v-.048h-.094v-.047h-.096v-.048h-.047v-.047h-.095v-.048h-.047v-.047h-.095v-.048h-.048v-.047h-.095v-.048h-.095v-.047h-.047v-.047h-.095v-.048h-.048v-.047h-.094v-.048h-.048v-.047h-.095V33.2h-.095v-.047h-.047v-.048h-.095v-.047h-.048v-.048h-.095v-.047h-.095v-.048h-.047v-.047h-.095v-.048h-.047v-.047h2.753v1.756h-.048Zm-11.915-8.735v-.047h-.048v-.047h-.095v-.048h-.047v-.047h-.047v-.048h-.048v-.047h-.047v-.048h-.048v-.047h-.095v-.048h-.047v-.047H56v-.048h-.047v-.047h-.048v-.048h-.047v-.047h-.048v-.048h-.047v-.047h-.048v-.048h-.047v-.047h-.048v-.047h-.095v-.048h-.047v-.047h-.047v-.048h-.048v-.047h-.047v-.048h-.048v-.047h-.047v-.048h-.048v-.047h-.047v-.048h-.048v-.047h-.047v-.048h-.048v-.047h-.047v-.048h-.095v-.047h-.048v-.048h-.047v-.047h-.048v-.048h-.047v-.047h-.047v-.048h-.048v-.047h-.047v-.047h-.048v-.048h-.047v-.047h-.048v-.048h-.047v-.047h-.048v-.048h-.047v-.047h-.048v-.048h-.047v-.047h-.048v-.048h-.095v-.047h-.047v-.048h-.048v-.047h-.047v-.048h-.047v-.047h-.048v-.047h-.048v-.048h-.047v-.047h-.047v-.048h-.048v-.047h-.047v-.048h-.048V22.9h-.047v-.048h-.048v-.047h-.047v-.048h-.048v-.047h-.047v-.048H53.2v-.047h-.047v-.048h-.048v-.047h-.047v-.048h-.047v-.047h-.048v-.048h-.047v-.047h-.048v-.047h-.047v-.048h-.048v-.047h-.047v-.048h-.048v-.047h-.047v-.048h-.048v-.047h-.047v-.048h-.048v-.047h-.047v-.048h-.048v-.047h-.047v-.048h-.048v-.047h-.047v-.095h-.048v-.048h-.047v-.047h-.047v-.047h-.048v-.048h-.047v-.047h-.048v-.048h-.047v-.047h-.048v-.048h-.047v-.047h-.048v-.048h-.047v-.047h-.048v-.048h-.047v-.047h-.048v-.048h-.047v-.047h-.048v-.048h-.047v-.047h-.048v-.048h-.047v-.047h-.047v-.048h-.048v-.047h-.047v-.095h-.048v-.047h-.047v-.048h-.048v-.047h-.047v-.048h-.048v-.047h-.047v-.048h-.048v-.047h-.047v-.048h-.048v-.095h-.047v-.047h-.048v-.048h-.047v-.047h-.048v-.048h-.047v-.047h-.048v-.047h-.047v-.048H50.4v-.047h-.048v-.048h-.047v-.095h-.048v-.047h-.047v-.048h-.048v-.047h-.047v-.048h-.048v-.047h-.047v-.048h-.048v-.047h-.047v-.048h-.048v-.095h-.047v-.047h-.048v-.048h-.047v-.047h-.048v-.047h-.047v-.048h-.047v-.095h-.048v-.047h-.047v-.048h-.048v-.047h-.047v-.048h-.048v-.047h-.047v-.095h-.048v-.048h-.047v-.047h-.048v-.048h-.047V18.2h-.048v-.048h-.047v-.095h-.048v-.047h-.047v-.048h-.048v-.047h-.047v-.047h-.048v-.048h-.047v-.095h-.047v-.047h-.048v-.048h-.047v-.047h-.048v-.048h-.047v-.095h-.048v-.047h-.047v-.048h-.048v-.047h-.047v-.048h-.048v-.095h-.047v-.047h-.048v-.047h-.047v-.048h-.048v-.095h-.047v-.047h-.048v-.048h-.047v-.047h-.047v-.095h-.048v-.048h-.047v-.047h-.048v-.048h-.047v-.047h22.691v9.304"/></g><defs><clipPath id="a"><path fill="#fff" transform="translate(41 12)" d="M0 0h157v71.522H0z"/></clipPath></defs></svg>