<svg width="241" height="96" fill="none" xmlns="http://www.w3.org/2000/svg"><path d="M202.232 33.584v6.559h13.448v22.06h7.141v-22.06h13.471v-6.559h-34.06ZM50.949 50.238h9.912c-1.654-2.453-3.353-4.871-5.007-7.312-1.631 2.452-3.285 4.893-4.905 7.312Z" fill="#85C3D8"/><path d="M7.194 32.797V62.17h120.988l3.342-4.996h19.026c1.141 1.654 2.281 3.319 3.422 4.973h8.178c-6.741-9.798-13.448-19.608-20.212-29.372l-134.744.023Zm17.372 25.516a15.49 15.49 0 0 1-8.897-3.205 10.187 10.187 0 0 1-.25-14.703 14.943 14.943 0 0 1 9.124-3.57c4.723-.365 9.798.251 13.62 3.32a195.57 195.57 0 0 0-2.453 3.136c-3.24-2.772-7.745-3.023-11.783-2.555a7.78 7.78 0 0 0-5.874 3.103c-2.053 3.239-1.084 8.577 2.92 9.912a18.148 18.148 0 0 0 13.334-.799v-3.205h-9.855v-3.98h14.064v9.01c-3.855 3.171-9.125 3.856-13.95 3.536Zm41.622-.285-2.635-3.821H48.314c-.867 1.3-1.688 2.555-2.59 3.855h-4.79c5.008-7.311 9.73-14.828 14.954-21.98 5.293 7.175 10.163 14.669 15.239 21.98-1.62-.08-3.285-.08-4.939-.08v.046Zm37.082 0h-4.471V45.481c-3.137 2.92-6.16 6.023-9.41 8.863-3.285-2.954-6.525-5.943-9.798-8.897v12.547h-4.472V36.55a5.34 5.34 0 0 1 2.453 1.369c3.923 3.638 7.893 7.243 11.85 10.881 3.856-3.672 7.712-7.311 11.533-10.995a4.742 4.742 0 0 1 2.281-1.267c.069 7.107.034 14.281.034 21.445v.045Zm29.087-16.938h-17.372v4.22h14.6c-.867 1.3-1.688 2.635-2.555 3.924h-12.045v4.756h8.942c-.901 1.369-1.768 2.704-2.669 4.038h-10.779V36.972h24.547c-.867 1.369-1.768 2.703-2.669 4.072v.046Zm3.422 9.798c1.688-2.555 3.422-5.076 5.121-7.608 1.768 2.52 3.491 5.075 5.224 7.608h-10.345ZM195.754 49.051c3.821-3.137 3.821-9.912-.217-12.866-3.069-2.281-7.027-2.521-10.699-2.59H165.31V62.17h7.106V51.97h10.266c3.102 3.422 6.159 6.844 9.262 10.198h9.011c-3.285-3.605-6.525-7.243-9.844-10.848a13.63 13.63 0 0 0 4.643-2.27Zm-7.289-3.285h-16.049v-5.703h16.037a2.885 2.885 0 1 1 0 5.772l.012-.069Z" fill="#85C3D8"/></svg>