<svg width="241" height="96" fill="none" xmlns="http://www.w3.org/2000/svg"><path fill-rule="evenodd" clip-rule="evenodd" d="M158.833 21.725c-.444.616-1.142 1.12-1.55 1.12-1.022 0-3.493 2.559-3.493 3.618 0 .492.483.866 1.121.866.616 0 1.12.252 1.12.56 0 .309.505.56 1.121.56.617 0 1.121.253 1.121.561 0 .308.504.56 1.121.56.616 0 1.121.253 1.121.56 0 .31.756.561 1.681.561.924 0 1.681-.252 1.681-.56 0-.308.504-.56 1.121-.56.616 0 1.121-.253 1.121-.56 0-.31.504-.561 1.12-.561.617 0 1.121-.252 1.121-.56 0-.309.449-.561.997-.561.549 0 1.361-.505 1.805-1.12.445-.617 1.257-1.122 1.805-1.122s.997-.252.997-.56c0-.308-.756-.56-1.681-.56s-1.681-.253-1.681-.561c0-.308-.757-.56-1.681-.56-.925 0-1.682-.253-1.682-.56 0-.309-.756-.561-1.681-.561-.924 0-1.681-.252-1.681-.56 0-.309-.953-.561-2.118-.561-1.475 0-2.363.34-2.926 1.12Zm16.252 5.043c0 .309-.504.56-1.121.56-.616 0-1.121.253-1.121.561 0 .309-.448.56-.997.56-.548 0-1.36.505-1.805 1.121-.444.617-1.256 1.121-1.805 1.121-.548 0-.997.253-.997.56 0 .309-.504.561-1.12.561-1.901 0-1.262 1.565 1.949 4.776 2.096 2.096 3.518 3.07 4.483 3.07.777 0 1.413-.252 1.413-.56 0-.309.757-.561 1.681-.561.925 0 1.682-.252 1.682-.56 0-.309.756-.56 1.681-.56s1.681-.253 1.681-.561c0-.309.757-.56 1.681-.56.925 0 1.681-.253 1.681-.561 0-.308.505-.56 1.121-.56.617 0 1.121-.253 1.121-.56 0-.31.504-.561 1.121-.561.616 0 1.121-.144 1.121-.32 0-.613-1.606-1.922-2.358-1.922-.417 0-1.121-.504-1.565-1.12-.445-.617-1.257-1.122-1.805-1.122s-.997-.252-.997-.56c0-.308-.449-.56-.997-.56-.549 0-1.361-.505-1.805-1.121-.832-1.155-3.923-1.596-3.923-.56Zm12.329 10.088c0 .308-.504.56-1.121.56-.616 0-1.121.252-1.121.56 0 .309-.756.56-1.681.56s-1.681.253-1.681.561c0 .309-.757.56-1.681.56-.925 0-1.682.253-1.682.561 0 .308-.756.56-1.681.56-.924 0-1.681.253-1.681.56 0 .31-.504.561-1.121.561-.616 0-1.121.252-1.121.56 0 .309.253.561.561.561.308 0 .56.449.56.997 0 .549.505 1.36 1.121 1.805.658.475 1.121 1.451 1.121 2.366 0 .856.252 1.557.56 1.557.308 0 .561.504.561 1.12 0 .935.373 1.122 2.241 1.122 1.233 0 2.242-.253 2.242-.56 0-.309 1.261-.561 2.802-.561 1.541 0 2.802-.252 2.802-.56 0-.312 1.494-.561 3.362-.561s3.363-.249 3.363-.56c0-.309 1.261-.56 2.802-.56 2.313 0 2.802-.175 2.802-.998 0-.548-.505-1.36-1.121-1.805-.617-.444-1.121-1.2-1.121-1.681 0-.48-.504-1.237-1.121-1.681-.616-.445-1.12-1.139-1.12-1.544 0-.404-.875-1.61-1.943-2.678-1.484-1.484-2.411-1.943-3.923-1.943-1.089 0-1.98.252-1.98.56Zm7.846 14.57c0 .308-1.261.56-2.802.56-1.542 0-2.803.253-2.803.561 0 .312-1.494.56-3.362.56s-3.362.25-3.362.56c0 .309-1.009.561-2.242.561h-2.242v2.242c0 1.233.253 2.241.561 2.241.311 0 .56 1.495.56 3.363v3.362h12.329c7.846 0 12.329-.204 12.329-.56a.562.562 0 0 0-.56-.56c-.32 0-.561-1.682-.561-3.923 0-2.242-.24-3.923-.56-3.923-.308 0-.561-.9-.561-2.001 0-1.102-.36-2.363-.8-2.802-.909-.91-5.924-1.113-5.924-.24ZM141.461 47.503c0 1.868.187 2.242 1.121 2.242.616 0 1.121.252 1.121.56 0 .309 1.008.56 2.241.56 2.197 0 2.242-.039 2.242-2 0-2.683-1.064-3.603-4.163-3.603h-2.562v2.241Zm13.45-.8c0 1.621 1.158 3.042 2.482 3.042.484 0 .88.252.88.56 0 .851 2.773.67 3.682-.24 1.126-1.125 1.005-1.849-.575-3.427-1.057-1.058-1.965-1.376-3.922-1.376-2.362 0-2.547.105-2.547 1.44Zm.7 6.122c-.494.561-.7 3.284-.7 9.25 0 8.23.036 8.492 1.375 9.831 1.057 1.058 1.966 1.376 3.923 1.376h2.547v-8.967c0-5.604-.21-8.966-.56-8.966-.308 0-.561-.504-.561-1.12 0-.935-.373-1.122-2.241-1.122-1.233 0-2.242-.252-2.242-.56 0-.79-.715-.66-1.541.278Zm-112.781.843c0 .308-.642.56-1.426.56-.785 0-2.046.62-2.803 1.376-1.278 1.278-1.375 1.774-1.375 7.03 0 5.257.097 5.752 1.376 7.03.756.757 2.017 1.376 2.802 1.376.784 0 1.426.252 1.426.56 0 .345 2.802.561 7.285.561H57.4v1.44c0 2.731-.945 3.043-9.207 3.043-4.696 0-7.605.214-7.605.56 0 .309-.756.561-1.681.561-1.495 0-1.681.187-1.681 1.681v1.681h8.966c5.604 0 8.967-.21 8.967-.56 0-.308 1.008-.56 2.241-.56s2.242-.253 2.242-.56c0-.309.39-.561.866-.561s1.485-.62 2.241-1.376c1.367-1.366 1.376-1.446 1.376-12.329 0-6.928.206-10.953.56-10.953.309 0 .56-.252.56-.56 0-.355-4.109-.56-11.207-.56-7.099 0-11.208.205-11.208.56Zm33.624 0c0 .308-.39.56-.866.56-1.121 0-3.617 2.496-3.617 3.618 0 .476-.252.865-.56.865-.328 0-.561 1.868-.561 4.484 0 2.615.234 4.483.56 4.483.309 0 .56.396.56.88 0 1.133 1.35 2.482 2.483 2.482.484 0 .88.252.88.56 0 .309.757.561 1.681.561.925 0 1.681.252 1.681.56 0 .355 3.923.56 10.648.56 9.306 0 10.648-.11 10.648-.88 0-2.15-1.308-2.481-9.767-2.481-5.07 0-8.166-.213-8.166-.56 0-.31-.396-.561-.88-.561-1.324 0-2.483-1.421-2.483-3.043v-1.44h9.847c11.124 0 11.449-.112 11.449-3.902 0-1.877-.357-2.657-1.943-4.243-1.068-1.069-2.33-1.943-2.802-1.943s-.86-.252-.86-.56c0-.35-3.362-.56-8.966-.56-5.604 0-8.966.21-8.966.56Zm29.141 8.15c0 8.503.033 8.746 1.376 10.088 1.057 1.058 1.965 1.376 3.923 1.376h2.547v-7.846c0-7.472.053-7.845 1.121-7.845.616 0 1.12-.253 1.12-.56 0-.33 1.97-.561 4.789-.561 4.338 0 4.919.13 6.164 1.376 1.296 1.295 1.376 1.737 1.376 7.605 0 7.254.307 7.83 4.163 7.83h2.562v-7.845c0-4.857-.213-7.845-.56-7.845-.309 0-.561-.505-.561-1.121 0-.747-.374-1.121-1.121-1.121-.616 0-1.12-.252-1.12-.56 0-.309-.505-.56-1.121-.56-.617 0-1.121-.253-1.121-.561 0-.356-4.297-.56-11.768-.56h-11.769v8.71Zm35.866.816c0 9.153.044 9.527 1.121 9.527.616 0 1.121.252 1.121.56 0 .309 1.008.56 2.241.56h2.242v-9.286c0-10.623-.102-10.888-4.163-10.888h-2.562v9.527Zm-84.862-5.363c.57.568.801 2.187.801 5.604 0 4.43-.087 4.803-1.12 4.803-.617 0-1.121.252-1.121.56 0 .327-1.868.56-4.484.56-2.615 0-4.483-.233-4.483-.56 0-.308-.504-.56-1.12-.56-1.034 0-1.122-.374-1.122-4.787 0-3.032.257-5.079.701-5.583.998-1.133 10.821-1.164 11.948-.037Zm33.305-.24c0 .307.504.56 1.12.56.872 0 1.121.373 1.121 1.68v1.682h-13.45v-1.425c0-2.544.976-3.014 6.305-3.037 2.91-.013 4.904.207 4.904.54Z" fill="#85C3D8"/><path d="M104.52 16.136c3.246-.202 6.097-.557 6.336-.79.997-.973 27.116.271 35.877 1.708 8.057 1.322 8.278 1.384 8.472 2.362.257 1.296-.62 2.22-3.686 3.886-2.335 1.268-2.779 1.34-4.786.777a112.95 112.95 0 0 0-4.148-1.068c-1.065-.246-2.931-.7-4.148-1.007-6.622-1.672-14.014-2.325-26.269-2.319-14.325.007-23.364.976-36.224 3.88-1.52.343-3.636.816-4.7 1.051-1.065.235-3.119.791-4.564 1.236-2.965.913-4.048.304-1.623-.912 3.745-1.879 12.374-4.547 18.491-5.718 1.445-.276 3.934-.755 5.53-1.064 6.261-1.209 9.772-1.669 15.442-2.022ZM47.206 36.366c-2.617-2.228-2.639-4.217-.075-6.703 2.26-2.193 5.052-2.457 7.575-.715 1.349.932 1.605 1.48 1.605 3.431 0 1.986-.282 2.563-1.955 3.987-2.557 2.179-4.592 2.179-7.15 0Z" fill="#85C3D8"/></svg>