<svg width="241" height="96" fill="none" xmlns="http://www.w3.org/2000/svg"><path d="M45.377 35.962a11.89 11.89 0 0 0-2.102-6.291 6.292 6.292 0 0 0-5.234-2.303 6.468 6.468 0 0 0-4.756 1.762 6.127 6.127 0 0 0-1.761 4.504 7.7 7.7 0 0 0 2.05 5.486 41.518 41.518 0 0 0 6.292 5.033 50.87 50.87 0 0 1 4.353 3.083c1.127.96 2.16 2.026 3.083 3.183a14.206 14.206 0 0 1 2.403 4.114 14.03 14.03 0 0 1 .931 5.335 12.293 12.293 0 0 1-3.183 8.959c-2.076 2.152-5.109 3.183-9.022 3.183a10.922 10.922 0 0 1-8.807-3.774 14.873 14.873 0 0 1-3.335-9.79h4.756a10.846 10.846 0 0 0 2.102 6.707 6.958 6.958 0 0 0 5.725 2.403 6.719 6.719 0 0 0 5.196-2.05 8.254 8.254 0 0 0 1.862-5.826 8.279 8.279 0 0 0-2.151-5.776 37.75 37.75 0 0 0-6.656-5.435c-1.602-1.082-2.961-2.085-4.077-3.007a28.942 28.942 0 0 1-3.083-2.945 11.828 11.828 0 0 1-2.302-3.774 12.179 12.179 0 0 1-.88-4.706 10.808 10.808 0 0 1 3.182-8.078 11.601 11.601 0 0 1 8.317-3.02 11.023 11.023 0 0 1 8.418 3.423c2.101 2.252 3.234 5.435 3.422 9.6h-4.743Zm38.64 22.774a25.62 25.62 0 0 1-2.743 7.638 11.865 11.865 0 0 1-4.152 4.378c-1.72.901-3.646 1.335-5.587 1.258A10.922 10.922 0 0 1 66 70.752a11.5 11.5 0 0 1-4.215-4.316 24.283 24.283 0 0 1-2.743-7.637 56.824 56.824 0 0 1-.981-11.21c-.049-3.799.28-7.592.981-11.325a24.32 24.32 0 0 1 2.693-7.638 10.72 10.72 0 0 1 9.801-5.687c1.95-.035 3.875.438 5.587 1.372a10.82 10.82 0 0 1 4.152 4.316 24.335 24.335 0 0 1 2.693 7.637 57.015 57.015 0 0 1 .981 11.324c.02 3.76-.308 7.512-.981 11.21l.05-.062Zm-4.844-21.1a20.864 20.864 0 0 0-1.762-6.166 7.55 7.55 0 0 0-2.592-3.183 6.43 6.43 0 0 0-6.656 0 7.55 7.55 0 0 0-2.592 3.183 23.54 23.54 0 0 0-1.761 6.166 61.917 61.917 0 0 0-.642 9.89 61.94 61.94 0 0 0 .642 9.889 20.86 20.86 0 0 0 1.761 6.165 7.549 7.549 0 0 0 2.592 3.183 6.43 6.43 0 0 0 6.656 0 7.549 7.549 0 0 0 2.592-3.183 23.541 23.541 0 0 0 1.762-6.165c.478-3.274.692-6.581.642-9.89a61.94 61.94 0 0 0-.642-9.89ZM93.517 23.63h20.471v4.341H98.663v16.27h11.551v4.365H98.701v22.724h-5.146V23.619l-.038.012Zm51.588 0v4.341h-9.727v43.41h-5.146v-43.41h-9.827v-4.404l24.7.063ZM150.729 23.619h12.683a10.881 10.881 0 0 1 8.279 3.183 12.241 12.241 0 0 1 2.982 8.569 12.285 12.285 0 0 1-1.762 6.656 9.233 9.233 0 0 1-5.485 3.913v.15a10.407 10.407 0 0 1 6.291 4.266 13.986 13.986 0 0 1 2.088 7.814c0 8.807-5.033 13.224-15.325 13.224h-9.651V23.58l-.1.038Zm5.146 20.521h2.894c3.775 0 6.518-.679 8.178-1.962 1.661-1.284 2.517-3.574 2.517-6.757 0-2.693-.638-4.601-1.913-5.725-1.258-1.133-3.472-1.66-6.568-1.66h-5.146V44.14h.038Zm0 22.875h5.146a10.482 10.482 0 0 0 7.147-2.151c1.56-1.422 2.441-3.675 2.441-6.694 0-3.234-.78-5.637-2.303-7.248-1.522-1.61-3.913-2.403-7.247-2.403h-5.146l-.038 18.496Zm49.901-43.396v4.353h-16.659v16.27h12.293v4.365h-12.293v18.37h17.44v4.354h-22.649V23.619h21.868Zm30.022 0v4.353h-9.827v43.41h-5.146v-43.41h-9.789v-4.404l24.762.05ZM9.316 43.209V72.01h4.945v-28.8a8.266 8.266 0 0 1-2.454.39 8.582 8.582 0 0 1-2.516-.39h.025Zm2.592-16.256a4.315 4.315 0 1 1-.025 0h.025Zm0-3.913a8.204 8.204 0 1 0 3.124.608c-1-.408-2.07-.615-3.15-.608h.026Z" fill="#85C3D8"/></svg>