<svg version="1.1" id="Layer_1" xmlns="http://www.w3.org/2000/svg" x="0" y="0" viewBox="0 0 368 61" style="enable-background:new 0 0 368 61" xml:space="preserve"><style>.st0{fill:#00badb}.st1{fill:#f9a11b}</style><path class="st0" d="m37.4 1.4-7.3 58.4H8.5L.2 1.4h15.1c1.8 16.1 3 29.7 3.7 40.9.7-11.3 1.5-21.3 2.3-30l1-10.9h15.1zM42.1 1.4h23.8v11.7h-9.5v11.1h8.9v11.1h-8.9v12.8h10.5v11.7H42.1V1.4zM115 1.4v58.4h-12.5V20.4l-5 39.4h-8.9l-5.2-38.5v38.5H71V1.4h18.5c.5 3.5 1.1 7.6 1.7 12.4l2 14.9 3.3-27.3H115z"/><path class="st1" d="m146.8 1.4 8.2 58.4h-14.6l-.8-10.5h-5.1l-.9 10.5h-14.8l7.3-58.4h20.7zm-7.5 37.5c-.7-6.6-1.4-14.8-2.2-24.5-1.5 11.2-2.4 19.4-2.7 24.5h4.9zM158.8 1.4h14.4c3.9 0 6.9.3 9 1s3.7 1.6 4.7 2.8c1.1 1.2 1.8 2.7 2.1 4.5s.6 4.4.6 8.1v5.1c0 3.7-.4 6.4-1.1 8.2-.7 1.7-2.1 3-4 3.9-1.9.9-4.5 1.4-7.6 1.4h-3.8v23.5h-14.3V1.4zm14.3 10v14.9h1.1c1.3 0 2.2-.3 2.7-1s.8-2.1.8-4.3v-4.8c0-2-.3-3.3-.9-3.9-.6-.6-1.8-.9-3.7-.9zM226.7 35.6c0 5.9-.1 10-.4 12.5-.3 2.4-1.1 4.7-2.4 6.7s-3.2 3.6-5.5 4.7-5 1.6-8.1 1.6c-2.9 0-5.6-.5-7.9-1.5-2.3-1-4.2-2.6-5.6-4.6-1.4-2-2.3-4.3-2.5-6.7-.3-2.4-.4-6.6-.4-12.6v-10c0-5.9.1-10 .4-12.5s1.1-4.7 2.4-6.7 3.2-3.6 5.5-4.7 5-1.6 8.1-1.6c2.9 0 5.6.5 7.9 1.5 2.3 1 4.2 2.6 5.6 4.6 1.4 2 2.3 4.3 2.5 6.7.3 2.4.4 6.6.4 12.6v10zm-14.3-19.2c0-2.7-.1-4.5-.4-5.2-.3-.8-.9-1.1-1.7-1.1-.7 0-1.3.3-1.7.9s-.6 2.4-.6 5.4v27.3c0 3.4.1 5.5.4 6.3.3.8.9 1.2 1.8 1.2 1 0 1.6-.5 1.9-1.4.3-.9.4-3.1.4-6.5V16.4zM262.3 19.1H249v-4.3c0-2-.2-3.3-.5-3.9s-.9-.8-1.7-.8c-.9 0-1.5.4-2 1.1-.4.7-.7 1.9-.7 3.4 0 2 .2 3.4.7 4.4.5 1 1.8 2.2 4 3.6 6.4 4 10.4 7.3 12 9.9 1.7 2.6 2.5 6.7 2.5 12.5 0 4.2-.5 7.2-1.4 9.2-.9 2-2.7 3.6-5.3 5-2.6 1.3-5.7 2-9.2 2-3.8 0-7.1-.8-9.8-2.3-2.7-1.5-4.5-3.5-5.3-5.9-.8-2.4-1.3-5.8-1.3-10.1v-3.8h13.3V46c0 2.2.2 3.6.6 4.2.4.6 1 .9 2 .9s1.7-.4 2.1-1.2c.5-.8.7-2 .7-3.5 0-3.4-.4-5.7-1.3-6.7-.9-1.1-3.1-2.8-6.7-5.3s-5.9-4.3-7.1-5.5c-1.2-1.1-2.1-2.7-2.9-4.7s-1.1-4.5-1.1-7.7c0-4.5.5-7.7 1.6-9.8 1.1-2.1 2.8-3.7 5.2-4.9s5.3-1.8 8.7-1.8c3.7 0 6.9.6 9.5 1.9 2.6 1.3 4.3 2.9 5.2 4.8.8 1.9 1.3 5.2 1.3 9.9v2.5zM297.4 1.4v11.7h-8.5v46.7h-14.3V13.1h-8.4V1.4h31.2zM323.9 1.4l8.2 58.4h-14.6l-.8-10.5h-5.1l-.9 10.5H296l7.3-58.4h20.6zm-7.5 37.5c-.7-6.6-1.4-14.8-2.2-24.5-1.5 11.2-2.4 19.4-2.7 24.5h4.9zM335.9 1.4H346c6.7 0 11.3.3 13.7.8 2.4.6 4.3 2 5.8 4.2 1.5 2.3 2.3 5.9 2.3 10.9 0 4.5-.5 7.6-1.6 9.2-1.1 1.6-3.2 2.5-6.3 2.8 2.8.7 4.7 1.7 5.7 3s1.6 2.4 1.8 3.4.4 3.9.4 8.6v15.4h-13.3V40.4c0-3.1-.2-5.1-.7-5.8-.5-.7-1.7-1.1-3.6-1.1v26.3h-14.3V1.4zm14.3 10v13c1.6 0 2.7-.2 3.4-.7.6-.5 1-2 1-4.6v-3.2c0-1.9-.3-3.1-.9-3.6-.7-.6-1.9-.9-3.5-.9z"/></svg>