<svg width="200" height="57" viewBox="0 0 200 57" fill="none" xmlns="http://www.w3.org/2000/svg">
<path d="M176.528 22.4158H156.39L158.186 18.8945H178.324L176.528 22.4158Z" fill="white" stroke="white" stroke-width="1.16667"/>
<path d="M172.937 29.8858H152.799L154.595 26.3591H174.733L172.937 29.8858Z" fill="white" stroke="white" stroke-width="1.16667"/>
<path d="M169.053 37.6207H148.915L150.711 34.0994H170.849L169.053 37.6207Z" fill="white" stroke="white" stroke-width="1.16667"/>
<path d="M196.531 22.4158H176.388L178.184 18.8945H198.327L196.531 22.4158Z" fill="white" stroke="white" stroke-width="1.16667"/>
<path d="M181.662 37.5938L190.679 19.5815L185.627 19.6086L176.61 37.6208L181.662 37.5938Z" fill="white" stroke="white" stroke-width="1.16667"/>
<path d="M142.89 22.3834H128.794L130.59 18.8621H144.686L142.89 22.3834Z" fill="white" stroke="white" stroke-width="1.16667"/>
<path d="M144.507 18.8728C142.181 18.8728 140.191 20.3387 139.406 22.3941H143.917C144.507 22.4049 144.772 22.4428 145.243 22.6483C145.897 22.935 146.351 23.5841 146.351 24.3414C146.351 25.0446 145.957 25.645 145.378 25.9587C144.691 26.3319 143.474 26.3319 143.03 26.3319H139.439C140.239 28.3603 142.197 29.8099 144.507 29.8099C147.52 29.8099 149.976 27.3596 149.976 24.3414C149.976 21.3231 147.52 18.8728 144.507 18.8728Z" fill="white" stroke="white" stroke-width="1.16667"/>
<path d="M142.133 26.3267C139.769 26.3267 137.773 27.7925 136.935 29.8588H141.689C141.787 29.8588 142.355 29.8804 142.425 29.9183C144.789 30.1941 144.735 33.9372 142.257 34.0508C142.241 34.0508 142.23 34.0616 142.208 34.0616H142.154C142.154 34.0616 142.154 34.0616 142.149 34.0616C142.149 34.0616 142.149 34.0616 142.144 34.0616H136.924C137.751 36.1495 139.764 37.6424 142.144 37.6424C145.259 37.6424 147.796 35.1056 147.796 31.99C147.796 28.8743 145.259 26.3375 142.144 26.3375L142.133 26.3267Z" fill="white" stroke="white" stroke-width="1.16667"/>
<path d="M127.149 29.8531H145.34L147.136 26.3264H128.539L126.96 29.4204L127.149 29.8531Z" fill="white" stroke="white" stroke-width="1.16667"/>
<path d="M142.37 37.637L144.166 34.0562H128.978L130.541 37.637H142.37Z" fill="white" stroke="white" stroke-width="1.16667"/>
<path d="M127.203 26.327H128.539L132.352 18.8733L127.3 18.9003L124.639 24.1039L126.343 28.0146L127.203 26.327Z" fill="white" stroke="white" stroke-width="1.16667"/>
<path d="M126.343 28.014L126.96 29.4204L128.539 26.3264H127.203L126.343 28.014Z" fill="white" stroke="white" stroke-width="1.16667"/>
<path d="M7.53257 32.7822L0.5 18.3625H10.763L15.297 28.1739C15.8802 29.4432 17.6926 29.4203 18.2472 28.1396L22.5068 18.3625H31.9121L25.4971 32.5249C23.8904 36.0755 20.3513 38.3568 16.4576 38.3568C12.6612 38.3568 9.20209 36.1956 7.53829 32.7822H7.53257Z" fill="#56EB7C"/>
<path d="M55.6976 18.3625V23.657H41.4037V25.6181H55.486V30.8325H41.4037V33.0109H55.8348V38.3568H32.4844V23.7999C32.4844 20.7982 34.92 18.3625 37.9218 18.3625H55.6976Z" fill="#56EB7C"/>
<path d="M64.0557 18.3625H70.7338L76.0797 28.2768L81.5628 18.3625H87.7034C90.7109 18.3625 93.1465 20.7982 93.1465 23.7999V38.3511H84.1471V27.3105L78.0465 38.3568H73.6154L67.5434 27.3105V38.3568H58.624V23.7999C58.6183 20.7982 61.054 18.3625 64.0557 18.3625Z" fill="#56EB7C"/>
<path d="M119.854 23.9372L126.886 38.3568H116.623L112.089 28.5455C111.506 27.2762 109.694 27.2991 109.139 28.5798L104.879 38.3625H95.4741L101.889 24.2002C103.496 20.6439 107.035 18.3625 110.934 18.3625C114.731 18.3625 118.19 20.5238 119.854 23.9372Z" fill="#56EB7C"/>
</svg>
