<svg width="241" height="96" fill="none" xmlns="http://www.w3.org/2000/svg"><path fill-rule="evenodd" clip-rule="evenodd" d="M120.478 22.909c-.044.116-.037.437.015.715.052.278.152.98.221 1.56.07.581.19 1.562.267 2.18.077.618.198 1.645.268 2.282s.19 1.664.268 2.282l.277 2.214.272 2.18.273 2.179.272 2.18.277 2.213c.078.618.198 1.645.268 2.282s.19 1.664.268 2.282l.277 2.214.272 2.18.273 2.179.272 2.18.277 2.213c.078.618.198 1.645.268 2.282s.191 1.664.268 2.282c.313 2.5.419 3.35.542 4.359.229 1.877.312 2.278.523 2.52.192.22.669.239 6.317.239 5.901 0 6.118-.01 6.378-.27.312-.311.372-.544.476-1.842.089-1.113.28-3.033.475-4.768.28-2.492.426-3.846.551-5.108.071-.712.192-1.862.269-2.555l.28-2.52c.077-.693.198-1.842.269-2.554.07-.712.191-1.861.268-2.554l.28-2.52c.077-.694.198-1.843.269-2.555.071-.712.191-1.861.269-2.554l.276-2.486.276-2.486c.169-1.518.382-3.647.492-4.91.133-1.531.353-1.46-4.446-1.46-3.682 0-4.064.022-4.254.24-.278.317-.324.712-.787 6.709-.072.936-.195 2.469-.273 3.405-.078.937-.202 2.546-.275 3.576l-.266 3.746c-.074 1.03-.186 2.64-.25 3.576-.124 1.803-.212 2.18-.514 2.18-.228 0-.295-.29-.394-1.703-.043-.6-.136-1.856-.209-2.792l-.267-3.474a679.95 679.95 0 0 0-.276-3.474c-.078-.937-.202-2.485-.275-3.44l-.273-3.542c-.077-.992-.175-2.418-.217-3.167-.09-1.578-.233-1.84-1.012-1.84-.28 0-1.052-.155-1.716-.345-2.223-.636-4.588-2.616-6.38-5.342-.391-.594-.829-.76-.979-.368Zm80.668 5.84c-3.905 1.11-5.749 3.322-6.667 8.002-.199 1.014-.217 2.455-.172 13.33.052 12.508.066 12.831.619 14.526.561 1.72 1.603 3.22 2.921 4.212 1.11.834 1.834 1.183 3.215 1.55 1.007.269 1.4.299 3.337.255 2.067-.046 2.268-.075 3.417-.488 1.49-.536 2.472-1.167 3.547-2.282 1.306-1.352 1.793-2.279 2.469-4.695.316-1.13.324-1.287.324-6.562 0-2.973-.037-5.502-.083-5.62-.165-.43-.432-.194-1.02.906-.847 1.585-2.195 2.976-3.538 3.65-1.04.524-2.396.95-3.02.95-.622 0-.752.337-.842 2.18-.201 4.154-.247 4.488-.666 4.848-.469.403-1.031.42-1.507.045-.542-.426-.666-.755-.818-2.169-.179-1.666-.177-21.325.002-23.431.148-1.743.368-2.326.971-2.575.718-.297 1.483.25 1.866 1.336.162.459.209 1.226.209 3.415 0 2.561.023 2.843.249 3.048.219.198.701.225 3.998.225 4.583 0 4.258.157 4.15-2-.154-3.08-.429-5.493-.741-6.514-.069-.225-.384-.922-.699-1.55-1.126-2.236-3.199-3.826-6.003-4.601-1.599-.442-3.943-.438-5.518.01Zm-127.352.465c-.207.23-.225 1.837-.225 20.345 0 19.295.01 20.105.25 20.321.216.197.666.226 3.517.226 3.228 0 3.273-.004 3.561-.311.292-.31.293-.334.33-8.753.022-4.643.093-8.526.16-8.63.173-.268.486.514.646 1.619a806.501 806.501 0 0 1 .527 3.678l.272 1.907a12497.876 12497.876 0 0 1 .55 3.849c.079.543.199 1.447.268 2.009.119.972.288 2.195.489 3.542.16 1.077.194 1.09 2.78 1.09 1.996 0 2.3-.03 2.48-.239.28-.321.405-.98.79-4.12.069-.563.191-1.482.272-2.044.081-.562.204-1.482.273-2.044.068-.561.191-1.481.272-2.043.081-.562.204-1.481.272-2.043.07-.562.191-1.482.272-2.044.08-.562.2-1.45.263-1.975.138-1.135.455-1.97.639-1.686.066.103.138 4.139.159 8.968.034 7.883.06 8.805.26 9.025.121.134.29.245.374.245.084 0 .58.208 1.102.462 1.27.618 2.848 2.235 4.136 4.237 1.342 2.089 1.299 2.035 1.558 1.936.213-.082.229-1.744.229-23.707 0-22.708-.01-23.627-.25-23.844-.222-.201-.804-.225-5.496-.225-6.016 0-5.614-.09-5.742 1.294-.042.45-.143 1.277-.226 1.84-.082.561-.206 1.48-.275 2.043-.068.561-.188 1.466-.266 2.009-.36 2.505-.431 3.024-.538 3.916-.11.924-.367 1.703-.56 1.703-.124 0-.481-1.447-.672-2.724-.2-1.335-.369-2.442-.545-3.576l-.286-1.84c-.079-.505-.204-1.317-.278-1.804-.291-1.911-.399-2.366-.619-2.609-.215-.237-.537-.252-5.363-.252-4.8 0-5.149.016-5.36.25Zm33.261-.01c-.308.357-.394.672-.534 1.94-.071.637-.19 1.649-.265 2.248-.076.6-.195 1.611-.265 2.248a165.89 165.89 0 0 1-.272 2.316c-.08.637-.203 1.679-.273 2.316-.069.637-.19 1.664-.267 2.282l-.282 2.247c-.077.619-.198 1.645-.268 2.282s-.19 1.664-.268 2.282l-.281 2.248c-.078.618-.198 1.645-.268 2.282-.07.636-.191 1.663-.268 2.281l-.282 2.248a192.88 192.88 0 0 0-.268 2.282c-.069.637-.19 1.664-.267 2.282l-.278 2.213-.272 2.18-.277 2.214c-.53 4.232-.634 5.823-.379 5.823.104 0 .518-.46.921-1.023 2.009-2.809 4.778-4.562 7.205-4.562.378 0 .729-.066.779-.147.26-.422.461-1.88.466-3.395.007-1.68.215-2.935.555-3.345.226-.273 2.209-.277 2.435-.005.311.375.452 1.13.574 3.078.189 3.02.262 3.59.492 3.848.193.217.571.239 4.116.239 3.028 0 3.959-.041 4.151-.181.221-.161.238-.325.162-1.533a63.963 63.963 0 0 0-.224-2.578c-.076-.674-.197-1.808-.268-2.52a316.48 316.48 0 0 0-.27-2.554l-.28-2.52c-.077-.693-.198-1.843-.269-2.554-.07-.712-.19-1.846-.266-2.52a383.91 383.91 0 0 1-.551-5.11c-.071-.711-.191-1.845-.266-2.52l-.277-2.486-.278-2.52c-.077-.693-.198-1.842-.269-2.554a352.1 352.1 0 0 0-.552-5.075 68.241 68.241 0 0 1-.218-2.35c-.048-.701-.15-1.174-.287-1.328-.195-.22-.66-.238-6.027-.238-5.37 0-5.831.018-6.02.238Zm37.85.01c-.207.23-.225 1.832-.225 20.274v20.025l.315.296.316.297H162.614l.297-.316c.289-.307.296-.404.296-3.997 0-3.395-.02-3.7-.249-3.908-.221-.2-.749-.225-4.692-.225-4.437 0-4.444 0-4.655-.303-.181-.258-.212-.903-.212-4.298v-3.994l.347-.348c.256-.255.435-.326.681-.266l.646.157c.409.1 1.05-.398 1.05-.813 0-.404.418-1.611.855-2.467.373-.733 2.269-2.656 3.477-3.528.451-.326.706-.604.679-.743-.038-.197-.442-.225-3.65-.255-3.486-.033-3.617-.044-3.847-.322-.212-.256-.238-.642-.238-3.512 0-2.697.034-3.273.212-3.527.211-.302.217-.302 4.678-.302 4.155 0 4.483-.018 4.692-.25.198-.218.226-.69.226-3.86 0-3.327-.02-3.631-.249-3.839-.227-.205-1.051-.225-9.038-.225-8.342 0-8.801.013-9.015.25Zm19.345 0c-.208.23-.226 1.832-.226 20.274v20.025l.315.296c.309.29.401.297 4.134.297 3.527 0 3.836-.02 4.044-.25.205-.226.226-1.042.226-8.911 0-4.765.037-8.76.083-8.878.058-.152.261-.216.683-.216.488 0 .69.083 1.08.443.858.792.875.979.877 9.65.001 7.296.015 7.723.251 7.936.137.124.464.226.727.226.559 0 1.673.362 2.636.857.898.46 2.726 2.327 3.255 3.323.298.56.5.792.693.792.27 0 .273-.103.307-10.342.038-11.08.012-11.592-.654-12.898-.351-.688-1.569-1.902-2.327-2.32-.368-.202-.611-.438-.637-.618-.035-.242.077-.33.665-.526 1.252-.416 2.173-1.523 2.548-3.062.082-.337.214-.9.294-1.252.189-.837.187-6.329-.003-7.39-.535-2.985-1.178-4.53-2.392-5.744-.87-.87-1.771-1.331-3.012-1.543l-1.643-.282c-.438-.075-3.228-.136-6.245-.136-5.111 0-5.468.016-5.679.25Zm20.434 0c-.208.23-.226 2.074-.226 23.76 0 12.932.038 23.609.083 23.727.154.402.423.219.845-.573 1.997-3.747 3.74-5.396 6.438-6.092.482-.124.983-.322 1.115-.44.225-.202.238-1.338.238-20.197 0-19.186-.01-19.992-.249-20.209-.22-.198-.71-.225-4.134-.225-3.59 0-3.902.019-4.11.25Zm30.787 0c-.207.23-.225 1.832-.225 20.274v20.025l.315.296c.173.163.44.297.592.297.477 0 1.788.511 2.394.934 1.526 1.065 3.475 3.505 4.313 5.399.275.621.598.793.749.399.046-.119.083-4.985.083-10.813 0-5.829.038-10.79.085-11.024.215-1.076.564-.106 1.268 3.525l1.241 6.403c.804 4.152.882 4.455 1.261 4.87.277.304.307.307 4.172.305 2.141-.002 3.98-.058 4.086-.125.317-.2.204-.98-.656-4.505-.448-1.836-1.19-4.9-1.648-6.812-.459-1.91-1.142-4.73-1.518-6.266-1.22-4.981-1.237-5.088-.992-6.047.117-.458.938-3.5 1.825-6.758 2.948-10.842 2.814-10.265 2.438-10.503-.103-.065-1.787-.12-3.742-.121-3.219-.002-3.575.02-3.771.237-.123.135-.873 2.86-1.724 6.263-1.78 7.115-2.015 7.818-2.24 6.695-.047-.234-.085-3.198-.085-6.586 0-5.795-.015-6.174-.249-6.386-.219-.198-.701-.225-3.998-.225-3.458 0-3.766.02-3.974.25Zm-41.292 7.05c.951.452 1.289 1.618 1.287 4.436-.002 2.677-.319 3.808-1.192 4.252-.731.371-.958.389-1.252.095-.269-.27-.279-.428-.279-4.336 0-3.451.031-4.102.212-4.36.25-.357.6-.382 1.224-.086Zm-61.183 5.54c.088.43.21 1.447.36 2.997.07.731.191 1.957.268 2.725.556 5.52.638 7.358.348 7.8-.201.308-.311.34-1.169.34-.859 0-.968-.032-1.169-.339-.237-.36-.234-.532.079-4.293.258-3.106.412-5.224.523-7.152.06-1.05.158-2.015.216-2.146.151-.336.47-.296.544.068ZM32.36 16.049a59.27 59.27 0 0 1-1.634.265c-2.018.296-4.617 1.008-6.744 1.846-4.51 1.777-9.55 5.372-12.42 8.856-1.921 2.334-2.383 2.966-3.345 4.577-2.276 3.812-3.669 7.592-4.253 11.54a87.17 87.17 0 0 1-.284 1.779c-.17.981-.17 6.085 0 7.067.073.417.2 1.217.284 1.78.31 2.094 1.01 4.66 1.857 6.81 1.778 4.51 5.372 9.551 8.856 12.42 2.334 1.922 2.966 2.384 4.578 3.346 3.811 2.276 7.59 3.669 11.539 4.253.562.084 1.362.211 1.779.284.981.17 6.086.17 7.067 0a75.54 75.54 0 0 1 1.78-.28c1.051-.151 3.665-.792 5.108-1.253 3.142-1.004 6.368-2.742 9.304-5.013 3.075-2.379 3.801-3.106 6.122-6.128 3.06-3.983 5.053-8.314 6.048-13.146.469-2.27.58-3.547.58-6.607s-.111-4.335-.58-6.607c-.528-2.566-1.565-5.614-2.641-7.765-1.62-3.238-4.85-7.595-7.04-9.495-3.978-3.453-7.875-5.774-11.793-7.026-1.443-.46-4.056-1.102-5.109-1.254a75.54 75.54 0 0 1-1.779-.279c-.933-.163-6.346-.14-7.28.03ZM15.026 32.856c2.758.7 5.068 1.768 7.788 3.605 1.761 1.189 2.1 1.452 4.323 3.352 2.272 1.944 6.446 6.599 8.125 9.063.713 1.047.88.998 2.095-.603.794-1.047 1.284-1.646 3.031-3.707 1.151-1.357 3.484-3.722 4.688-4.752 2.219-1.898 2.561-2.164 4.323-3.353 2.72-1.837 5.03-2.906 7.79-3.605 1.828-.464 1.865-.445 2.81 1.41 1.259 2.471 2.03 4.747 2.467 7.28l.346 2.003c.17.98.17 5.812 0 6.795-.714 4.143-1.136 5.813-2.156 8.523-.41 1.093-1.216 2.914-1.627 3.678-1.951 3.635-3.21 5.597-5.267 8.211-.977 1.242-1.452 1.068-1.035-.379.399-1.383.889-4.23 1.243-7.22.219-1.848.302-7.556.126-8.65l-.296-1.839c-.227-1.407-.636-2.853-1.092-3.86-.49-1.081-.479-1.323.143-2.876.231-.577.42-1.075.42-1.107 0-.163-.762-.022-1.265.233-1.534.777-4.808 3.309-6.82 5.273-1.644 1.606-4.294 4.944-5.56 7.003-.789 1.285-2.718 5.094-2.966 5.86-.092.28-.284.574-.427.65-.22.118-.305.068-.534-.307a5.3 5.3 0 0 1-.429-.924c-.085-.262-.584-1.335-1.108-2.384-1.53-3.064-4.379-7.068-6.82-9.583-2.354-2.424-7.255-6.006-8.23-6.014-.266-.002-.201.458.167 1.178a7.8 7.8 0 0 1 .504 1.305c.153.588.14.71-.149 1.363-.674 1.526-.997 2.757-1.507 5.757-.3 1.762-.062 8.587.39 11.17.078.45.202 1.186.274 1.635.122.763.616 3.337.758 3.952.087.38-.103.64-.388.53-.436-.166-3.083-3.856-4.414-6.15-.315-.544-.82-1.409-1.122-1.922-.695-1.183-2.107-4.472-2.777-6.469-.413-1.229-.954-3.387-1.15-4.585a891.51 891.51 0 0 1-.3-1.84c-.175-1.088-.097-6.685.114-8.105.18-1.213 1.067-4.589 1.458-5.548.788-1.932 1.04-2.473 1.524-3.265.423-.694.777-1.051 1.11-1.122.024-.005.664.148 1.422.34Z" fill="#85C3D8"/></svg>