<svg width="241" height="96" fill="none" xmlns="http://www.w3.org/2000/svg"><path d="M61.927 67.553a2.642 2.642 0 0 0-2.273 1.103c-.537.735-.805 1.76-.805 3.075 0 2.738 1.026 4.105 3.078 4.103a9.781 9.781 0 0 0 3.122-.644v2.188a8.688 8.688 0 0 1-3.368.625c-1.782 0-3.146-.54-4.094-1.622-.947-1.081-1.42-2.635-1.417-4.663a7.65 7.65 0 0 1 .696-3.353 5.016 5.016 0 0 1 2.002-2.206 5.896 5.896 0 0 1 3.056-.769 8.255 8.255 0 0 1 3.587.862l-.836 2.116a13.754 13.754 0 0 0-1.386-.569 4.098 4.098 0 0 0-1.362-.246ZM97.698 77.834V65.562h2.598v12.272h-2.598ZM138.162 77.834h-2.601V67.728h-3.328v-2.166h9.257v2.166h-3.328v10.106ZM177.242 70.615l2.561-5.053h2.809l-4.058 7.5v4.779h-2.582v-4.688l-4.059-7.579h2.81l2.519 5.041ZM183.199 32.966h-2.863c-.524 0-.584 0-.624-.54a10.315 10.315 0 0 0-.878-3.288c-1.136-2.456-3.078-3.797-5.726-4.103a10.12 10.12 0 0 0-4.402.4 7.104 7.104 0 0 0-4.371 4.003c-.4.927-.662 1.907-.78 2.91-.016.103-.022.209-.032.312a.274.274 0 0 1-.08.216.281.281 0 0 1-.216.081h-6.388a.31.31 0 0 1-.312-.29c-.063-.366-.113-.735-.194-1.094a10.07 10.07 0 0 0-1.474-3.5 6.85 6.85 0 0 0-5.548-3.088 10.33 10.33 0 0 0-3.003.231c-2.529.625-4.256 2.169-5.246 4.556a9.27 9.27 0 0 0-.674 2.604c-.056.575-.066.578-.69.581h-5.873c-.34 0-.409-.078-.375-.444.035-.365.091-.79.16-1.181a18.432 18.432 0 0 1 2.741-7.15 13.221 13.221 0 0 1 8.895-5.87 18.093 18.093 0 0 1 3.556-.312c2.864.001 5.638.995 7.853 2.813a17.544 17.544 0 0 1 2.809 2.906c.147.188.291.381.441.566a.196.196 0 0 0 .069.068.194.194 0 0 0 .189 0 .19.19 0 0 0 .07-.068c.171-.2.34-.407.505-.625a17.698 17.698 0 0 1 2.935-2.904A13.053 13.053 0 0 1 171.56 18a15.935 15.935 0 0 1 5.404.781 12.715 12.715 0 0 1 6.847 5.413 18.715 18.715 0 0 1 2.589 6.794c.087.469.143.938.196 1.416.066.553.056.556-.534.562h-2.863ZM47.028 34.854h3.022c.366 0 .422.06.428.41 0 .556-.019 1.115 0 1.671.02 1.22.256 2.428.696 3.566a9.279 9.279 0 0 0 4.11 4.797 9.716 9.716 0 0 0 3.849 1.185c1.61.185 3.24.093 4.82-.272 3.728-.916 6.092-3.263 7.238-6.875a8.027 8.027 0 0 0 .312-2.273c-.025-.625 0-1.221 0-1.83 0-.276.072-.354.312-.357H78.1c.244 0 .312.075.312.36.056 2.046 0 4.08-.543 6.078a17.757 17.757 0 0 1-2.972 6.197 14.674 14.674 0 0 1-7.263 5.056 20.634 20.634 0 0 1-5.863.963 22.517 22.517 0 0 1-6.15-.625c-5.055-1.278-8.565-4.375-10.616-9.122a17.731 17.731 0 0 1-1.424-5.444c-.097-1.054-.031-2.12-.037-3.182a.272.272 0 0 1 .312-.294h1.43l1.742-.009ZM71.606 32.932a1.523 1.523 0 0 1-.2-.625c-.656-3.192-2.503-5.373-5.542-6.544a11.89 11.89 0 0 0-3.8-.766c-1.725-.124-3.46.04-5.132.485-2.186.625-3.981 1.831-5.205 3.8a8.971 8.971 0 0 0-1.211 3.26c-.07.396-.091.421-.434.421h-6.12c-.365 0-.437-.081-.384-.422a23.8 23.8 0 0 1 .272-1.484 17.454 17.454 0 0 1 2.944-6.641 14.986 14.986 0 0 1 8.086-5.6 20.777 20.777 0 0 1 4.933-.788 22.612 22.612 0 0 1 6.704.625 15.183 15.183 0 0 1 7.524 4.375 16.82 16.82 0 0 1 3.666 6.448c.25.783.446 1.583.587 2.393.04.235.068.472.08.71.02.312-.05.375-.358.378h-5.882c-.185.006-.369-.013-.528-.025ZM15.669 18.172c1.908 0 3.815.028 5.723 0 1.272-.021 2.54.142 3.765.484a17.243 17.243 0 0 1 6.173 3.004 12.897 12.897 0 0 1 4.849 8.06c.137.728.19 1.468.274 2.206.02.185.028.37.025.556 0 .425-.04.469-.437.484h-6.2a.271.271 0 0 1-.313-.293 8.377 8.377 0 0 0-.165-1.563 7.69 7.69 0 0 0-1.38-3.266c-1.121-1.506-2.673-2.297-4.471-2.656a9.65 9.65 0 0 0-1.895-.19h-5.792c-.134 0-.265 0-.396.015a.242.242 0 0 0-.224.163.243.243 0 0 0-.014.096v6.982c0 .719 0 .715-.69.712H8.925c-.16 0-.312 0-.475-.022a.215.215 0 0 1-.202-.206c-.022-.184-.022-.362-.022-.556v-13.21c0-.866-.025-.8.843-.8h6.6ZM96.983 53.52H86.564a.239.239 0 0 1-.238-.141.24.24 0 0 1-.02-.096c0-.184-.016-.372-.016-.556V35.77c0-.982-.088-.904.893-.904h5.726a.244.244 0 0 1 .259.241c0 .266.018.528.018.794v9.71c0 1.012-.096.937.937.937h12.802c.983 0 .902-.072.902.9v5.798a.241.241 0 0 1-.16.225.233.233 0 0 1-.096.012h-.715l-9.873.038ZM221.655 18h11.296a.254.254 0 0 1 .18.067.255.255 0 0 1 .08.174V24.71a.258.258 0 0 1-.256.25h-6.997c-.7 0-.706 0-.706.697v6.916c-.016.312-.066.359-.393.362H218.655a.275.275 0 0 1-.312-.281c0-.238-.019-.475-.019-.716v-6.422c0-.506-.034-.537-.553-.54h-6.522c-1.317 0-1.14.165-1.146-1.132v-5.563a.25.25 0 0 1 .075-.179.242.242 0 0 1 .181-.068h.715L221.655 18ZM195.166 44.205v-8.676c0-.694-.053-.7.693-.7h5.963c.04 0 .08.009.116.025a.286.286 0 0 1 .162.288v17.747c0 .61.001.625-.623.625h-5.965c-.293-.018-.343-.068-.356-.397v-8.912h.01ZM179.728 44.148v-8.594c0-.744-.066-.725.746-.725h5.404c.184 0 .369 0 .553.022a.21.21 0 0 1 .206.203c.019.237.025.475.025.713v17.426c-.019.243-.088.312-.359.312H180.424c-.159 0-.312 0-.475-.022a.207.207 0 0 1-.203-.203c0-.238-.018-.475-.018-.716v-8.438.022ZM163.492 44.205v8.512c0 .832.044.804-.755.804h-5.486c-.159 0-.312 0-.475-.02a.225.225 0 0 1-.206-.203 4.242 4.242 0 0 1-.022-.477V35.632c0-.794-.056-.806.765-.803h5.486c.156 0 .312 0 .475.019a.212.212 0 0 1 .202.206c0 .237.016.475.016.716v8.438-.003ZM116.878 44.205V35.45c0-.606 0-.625.625-.625h6.035a.28.28 0 0 1 .207.095.285.285 0 0 1 .071.217V53.045c-.016.4-.05.45-.469.45h-6.1c-.294-.021-.347-.074-.36-.4v-8.89h-.009ZM15.123 53.158a.858.858 0 0 1-.54.1H8.537c-.178 0-.312-.09-.312-.29V35.204c0-.297.071-.35.393-.369h5.736c.184 0 .371 0 .555.019a.24.24 0 0 1 .253.247c0 .21.016.422.016.625v16.723c.028.238.01.479-.056.71ZM36.485 44.317v8.747c0 .407-.047.453-.466.453h-6.041a1.498 1.498 0 0 1-.237-.021.213.213 0 0 1-.19-.216c0-.184-.02-.369-.02-.556V35.785c0-.693 0-.697.706-.7h5.876c.29.019.35.078.362.4v.716l.01 8.116ZM133.426 44.201v-8.36c0-.237 0-.478.015-.715a.248.248 0 0 1 .065-.181.244.244 0 0 1 .176-.078h6.275c.266.018.334.078.35.312v18.073a.266.266 0 0 1-.018.096.252.252 0 0 1-.232.157h-6.21c-.381-.016-.421-.05-.437-.4v-8.904h.016ZM225.251 44.28v8.437c0 .841.038.8-.755.8H218.607a.24.24 0 0 1-.178-.07.247.247 0 0 1-.072-.179V35.834c0-1.078-.106-.96.996-.962h5.62a.24.24 0 0 1 .178.072.233.233 0 0 1 .066.18V44.284l.034-.004ZM202.114 25.5v7.016c0 .394-.06.447-.475.447h-6.045c-.359 0-.409-.062-.424-.415V18.38c0-.312.065-.35.39-.369h6.123c.368 0 .412.057.427.416v.556l.004 6.516ZM116.878 25.5v-6.769c0-.731 0-.731.699-.731h5.567c.16.001.32.012.478.031a.21.21 0 0 1 .197.21c0 .184.022.372.022.556v13.379c0 .812.031.793-.775.79h-5.41c-.185 0-.369 0-.553-.025a.2.2 0 0 1-.142-.064.208.208 0 0 1-.055-.145c0-.212-.019-.425-.019-.625-.006-2.209-.009-4.41-.009-6.607ZM93.19 25.5v6.766c0 .707 0 .713-.68.716H86.542a.242.242 0 0 1-.24-.26V18.939c-.023-1.013-.094-.938.873-.938H92.9c.197 0 .278.125.284.313.007.187 0 .425 0 .625l.007 6.562Z" fill="#85C3D8"/></svg>