<svg width="240" height="96" fill="none" xmlns="http://www.w3.org/2000/svg"><path d="M178.968 91.088c-1.147-1.27-1.716-3.018-1.716-5.236 0-2.52.544-4.476 1.633-5.869 1.089-1.393 2.827-2.09 5.212-2.09a13.747 13.747 0 0 1 4.273.614v1.133a13.252 13.252 0 0 0-4.132-.638c-2.078 0-3.552.588-4.424 1.762-.872 1.174-1.309 2.876-1.313 5.107 0 4.046 1.921 6.07 5.761 6.07.716-.002 1.43-.062 2.134-.181.63-.1 1.247-.27 1.838-.505v-5.212h-4.254v-1h5.411v6.84a6.753 6.753 0 0 1-2.042.795 13.7 13.7 0 0 1-3.228.32c-2.288 0-4.006-.636-5.153-1.905M134.768 87.475l-3.228-8.344-3.204 8.344h6.432Zm-4.015-9.344h1.623l5.644 14.642h-1.302l-1.649-4.284h-7.01l-1.648 4.284h-1.322l5.664-14.642ZM140.456 78.131h1.487l5.411 10.844 5.411-10.844h1.487v14.642h-1.259V79.95l-5.129 10.277h-.996l-5.153-10.277v12.823h-1.259V78.131ZM159.012 78.131h-1.278v14.642h1.278V78.131ZM162.493 78.131h1.206l9.266 12.776V78.131h1.278v14.642h-1.23l-9.241-12.757v12.757h-1.279V78.131ZM112.109 91.088c-1.148-1.27-1.721-3.017-1.721-5.236 0-2.52.546-4.476 1.638-5.869 1.092-1.393 2.826-2.086 5.202-2.08a13.747 13.747 0 0 1 4.273.614v1.123a13.252 13.252 0 0 0-4.132-.638c-2.078 0-3.552.588-4.424 1.762-.872 1.174-1.31 2.876-1.313 5.107 0 4.046 1.921 6.07 5.761 6.07a12.9 12.9 0 0 0 2.134-.181c.63-.1 1.247-.27 1.838-.505v-5.212h-4.249v-1h5.406v6.84a6.753 6.753 0 0 1-2.042.795c-1.059.234-2.143.34-3.228.32-2.288 0-4.006-.636-5.153-1.905M86.056 87.361l-5.363-9.23h3.272l3.67 6.617 3.666-6.617h3.252l-5.362 9.23v5.412h-3.135v-5.412Z" fill="#85C3D8"/><path d="m99.08 85.429-5.27-7.298h3.695l3.456 4.884 3.462-4.884h3.689l-5.269 7.298 5.41 7.344h-3.738l-3.554-4.893-3.554 4.893H93.67l5.41-7.344ZM110.908 49.533c-15.878-23.586-14.56-33.392-13.175-36.6a29.79 29.79 0 0 0-7.356 14.537 29.438 29.438 0 0 0 1.442 16.162 30.074 30.074 0 0 0 9.818 13.069 31.02 31.02 0 0 0 15.328 6.16c0-3.594-2.98-8.568-6.072-13.328" fill="#85C3D8"/><path d="M120.514 50.718c17.72-22.944 21.361-36.339 21.876-38.709a30.689 30.689 0 0 0-10.021-6.663 31.23 31.23 0 0 0-11.875-2.343 31.23 31.23 0 0 0-11.875 2.343 30.708 30.708 0 0 0-10.02 6.663c.539 2.38 4.18 15.765 21.876 38.71" fill="#85C3D8"/><path d="M143.3 12.928c1.37 3.175 2.678 12.8-12.64 35.843a.891.891 0 0 1-.049.086c-3.247 4.941-6.514 10.239-6.514 14.004a31.028 31.028 0 0 0 15.323-6.167 30.08 30.08 0 0 0 9.812-13.07 29.451 29.451 0 0 0 1.438-16.161 29.798 29.798 0 0 0-7.356-14.535M61.953 89.19c.667-.797 1.001-2.02 1.001-3.67 0-1.803-.324-3.089-.972-3.857-.652-.761-1.687-1.147-3.112-1.147-1.424 0-2.46.386-3.11 1.147-.652.762-.973 2.052-.973 3.856 0 1.653.334 2.877 1.001 3.67.666.8 1.692 1.195 3.087 1.195 1.395 0 2.431-.395 3.087-1.195h-.01Zm-10.355-3.67c0-2.65.6-4.58 1.798-5.79 1.2-1.208 3.03-1.818 5.494-1.827 2.447 0 4.27.61 5.47 1.828 1.198 1.218 1.798 3.148 1.798 5.788 0 4.989-2.423 7.481-7.268 7.478-4.845-.003-7.276-2.496-7.292-7.478ZM74.675 85.381a3.001 3.001 0 0 0 1.945-.557c.24-.23.425-.51.54-.819.117-.308.161-.638.13-.966.03-.324-.007-.65-.111-.958a2.369 2.369 0 0 0-.491-.837 2.579 2.579 0 0 0-1.833-.566h-3.403v4.703h3.223Zm-6.359-7.25h7.176c1.672 0 2.917.429 3.748 1.295.832.866 1.24 2.07 1.24 3.613a4.056 4.056 0 0 1-.774 2.541 4.203 4.203 0 0 1-2.197 1.553c.22.18.411.39.57.623.188.294.35.603.485.924l1.814 4.093h-3.262l-1.765-3.936a1.663 1.663 0 0 0-.52-.714c-.281-.15-.6-.218-.919-.195h-2.46v4.845h-3.136V78.131Z" fill="#85C3D8"/></svg>