<svg width="240" height="96" fill="none" xmlns="http://www.w3.org/2000/svg"><path d="M185.074 23.549v15.964l17.673-7.977-17.673-7.987ZM202.747 31.536V47.5l17.662-7.987-17.662-7.977Z" fill="#85C3D8"/><path d="M202.747 47.5v15.964l17.662-7.977-17.662-7.987Z" fill="#85C3D8"/><path d="M220.409 39.513v15.974l17.673-7.987-17.673-7.987ZM185.074 39.513v15.974l17.673-7.987-17.673-7.987Z" fill="#85C3D8"/><path d="M185.074 55.476v15.975l17.673-7.987-17.673-7.988ZM19.986 29.693a4.11 4.11 0 0 1 1.631.324c.493.207.946.498 1.339.86a3.81 3.81 0 0 1 1.226 2.826v6.234a3.787 3.787 0 0 1-1.226 2.826 4.617 4.617 0 0 1-1.339.86 4.131 4.131 0 0 1-1.63.325H4.404v7.987H.918V29.693h19.068Zm.709 4.01a.644.644 0 0 0-.214-.48.697.697 0 0 0-.495-.2H5.114a.7.7 0 0 0-.506.2.637.637 0 0 0-.214.48v6.234a.633.633 0 0 0 .214.48.697.697 0 0 0 .506.201h14.872a.701.701 0 0 0 .495-.2.637.637 0 0 0 .214-.48v-6.235ZM25.87 29.626h3.487v18.902h19.777v3.329H25.87v-22.23ZM70.137 29.66a4.3 4.3 0 0 1 2.97 1.172c.382.366.687.803.9 1.285.217.49.328 1.018.326 1.553v18.198h-3.487v-7.82H54.567v7.82H51.08V33.67a3.776 3.776 0 0 1 .293-1.564 4.02 4.02 0 0 1 .9-1.285c.39-.37.848-.662 1.35-.86a4.3 4.3 0 0 1 1.63-.313l14.884.012Zm.709 11.104V33.67a.632.632 0 0 0-.214-.48.697.697 0 0 0-.506-.201h-14.85a.7.7 0 0 0-.506.2.635.635 0 0 0-.214.481v7.094h16.29ZM99.78 29.66 89.046 43.534v8.323H85.56v-8.323L74.828 29.66h4.106l8.37 10.11 8.335-10.11h4.14ZM123.302 34.966h-3.487V33.67a.629.629 0 0 0-.214-.48.69.69 0 0 0-.506-.201h-14.85a.699.699 0 0 0-.506.2.638.638 0 0 0-.214.481v4.748a.644.644 0 0 0 .214.48.707.707 0 0 0 .506.201h14.872a4.303 4.303 0 0 1 1.632.313c.497.2.951.492 1.338.86.382.366.688.802.9 1.285.218.489.329 1.018.327 1.553v4.748a3.778 3.778 0 0 1-.327 1.552 3.99 3.99 0 0 1-.9 1.285 4.246 4.246 0 0 1-2.97 1.117h-14.872a4.245 4.245 0 0 1-2.969-1.117 4.01 4.01 0 0 1-.9-1.285 3.778 3.778 0 0 1-.327-1.552v-1.296h3.488v1.296a.644.644 0 0 0 .213.48.704.704 0 0 0 .507.2h14.872a.699.699 0 0 0 .506-.2.638.638 0 0 0 .214-.48v-4.76a.644.644 0 0 0-.214-.48.704.704 0 0 0-.506-.2h-14.884a4.255 4.255 0 0 1-2.969-1.118 4.01 4.01 0 0 1-.9-1.285 3.779 3.779 0 0 1-.327-1.553V33.67a3.778 3.778 0 0 1 .327-1.553c.212-.482.518-.919.9-1.284a4.3 4.3 0 0 1 2.969-1.173h14.872a4.301 4.301 0 0 1 2.97 1.172c.382.366.688.802.9 1.285.218.49.329 1.018.327 1.553l-.012 1.296ZM144.474 29.66a4.257 4.257 0 0 1 2.97 1.117c.382.365.688.802.9 1.284.217.49.328 1.019.326 1.553v14.188a3.794 3.794 0 0 1-.326 1.552c-.212.483-.518.92-.9 1.285a4.246 4.246 0 0 1-2.97 1.117h-14.872a4.25 4.25 0 0 1-2.97-1.117 4.026 4.026 0 0 1-.899-1.285 3.778 3.778 0 0 1-.327-1.552V33.67a3.779 3.779 0 0 1 .327-1.553c.212-.482.518-.919.899-1.284a4.3 4.3 0 0 1 2.97-1.173h14.872Zm0 18.879a.7.7 0 0 0 .507-.201.638.638 0 0 0 .213-.48V33.67a.628.628 0 0 0-.213-.48.704.704 0 0 0-.507-.201h-14.872a.699.699 0 0 0-.506.2.638.638 0 0 0-.214.481v14.188a.645.645 0 0 0 .214.48.704.704 0 0 0 .506.2h14.872ZM170.72 29.66h3.487v22.197h-4.14L154.43 34.094v17.763h-3.498V29.66h4.139l15.649 17.762V29.66ZM41.776 66.547V66a6.3 6.3 0 0 1-2.655.703c-1.833 0-2.25-1.027-2.25-2.636V59.8h.878v4.278c0 1.441.36 1.944 1.552 1.944a6.574 6.574 0 0 0 2.498-.66v-5.585h.9v6.703l-.923.067ZM49.325 66.547v-4.279c0-1.44-.349-1.944-1.541-1.944a6.72 6.72 0 0 0-2.498.648v5.586h-.9v-6.703h.9v.47a6.017 6.017 0 0 1 2.576-.727c1.935 0 2.374.916 2.374 2.648v4.279l-.911.022ZM51.98 58.481v-1.508h.923v1.542l-.923-.034Zm0 8.066v-6.703h.911v6.703h-.911ZM59.247 69.139v-2.86a6.056 6.056 0 0 1-2.25.424c-1.878 0-2.733-.86-2.733-3.24v-.502c0-2.614 1.046-3.351 3.375-3.351.842-.003 1.684.05 2.52.156v9.361l-.912.012Zm0-8.736c-.529 0-1.248-.067-1.642-.067-1.654 0-2.408.413-2.408 2.625v.503c0 1.91.54 2.524 1.97 2.524a6.497 6.497 0 0 0 2.08-.38v-5.205ZM66.796 66.547V66a6.3 6.3 0 0 1-2.656.703c-1.833 0-2.25-1.027-2.25-2.636V59.8h.878v4.278c0 1.441.36 1.944 1.552 1.944a6.574 6.574 0 0 0 2.498-.66v-5.585h.9v6.703l-.922.067ZM69.957 63.453v.145c0 1.541.472 2.401 2.508 2.401.847-.01 1.693-.073 2.531-.19v.648a13.21 13.21 0 0 1-2.587.246c-2.554 0-3.375-1.027-3.375-3.284v-.47c0-2.11.956-3.35 3.105-3.35s3.116 1.195 3.116 3.418v.413l-5.298.023Zm4.387-.794c0-1.206-.371-2.323-2.182-2.323-1.812 0-2.194 1.117-2.194 2.323v.112h4.387l-.011-.112ZM81.555 69.261a19.053 19.053 0 0 1-2.61-.212v-.592c.81.067 1.71.112 2.61.112 1.642 0 1.98-.503 1.98-1.776v-.336a7.786 7.786 0 0 1-1.789.246c-2.081 0-3.161-.815-3.161-3.105v-.872c0-2.122.967-3.105 3.375-3.105.843.014 1.684.074 2.52.178v6.994c-.045 1.608-.63 2.468-2.925 2.468Zm1.98-8.836a13.605 13.605 0 0 0-1.631-.112c-1.8 0-2.43.726-2.43 2.413v.872c0 1.81.652 2.413 2.25 2.413.6-.01 1.196-.088 1.777-.235l.034-5.35ZM90.498 66.547v-.48a5.18 5.18 0 0 1-2.497.648c-1.463 0-2.25-.593-2.25-1.944v-.19c0-1.72 1.226-2.067 3.375-2.067h1.271v-.57c0-1.318-.315-1.63-1.98-1.63a20.05 20.05 0 0 0-2.194.133v-.592a12.344 12.344 0 0 1 2.25-.234c2.385 0 2.824.737 2.824 2.323v4.603h-.799Zm0-3.351h-1.27c-1.8 0-2.52.223-2.52 1.43v.167c0 .927.573 1.251 1.518 1.251a5.045 5.045 0 0 0 2.25-.614l.022-2.235ZM101.445 66.547v-4.469c0-1.117-.102-1.698-1.305-1.698a4.748 4.748 0 0 0-2.104.637c.077.367.111.742.101 1.117v4.469h-.911v-4.469c0-1.117-.067-1.698-1.237-1.698a4.85 4.85 0 0 0-2.082.637v5.586h-.91v-6.703h.9v.368a4.375 4.375 0 0 1 2.249-.703 1.731 1.731 0 0 1 1.665.76 4.747 4.747 0 0 1 2.407-.76c2.014 0 2.104 1.284 2.104 2.413v4.468l-.877.045ZM104.088 58.481v-1.508h.922v1.542l-.922-.034Zm0 8.066v-6.703h.911v6.703h-.911ZM111.727 66.547v-4.279c0-1.44-.349-1.944-1.542-1.944a6.718 6.718 0 0 0-2.497.648v5.586h-.9v-6.703h.9v.47a6.018 6.018 0 0 1 2.576-.727c1.935 0 2.374.916 2.374 2.648v4.279l-.911.022ZM116.935 69.261a19.051 19.051 0 0 1-2.61-.212v-.592c.81.067 1.71.112 2.61.112 1.643 0 1.98-.503 1.98-1.776v-.336a7.783 7.783 0 0 1-1.789.246c-2.081 0-3.161-.815-3.161-3.105v-.872c0-2.122.968-3.105 3.375-3.105.843.014 1.684.074 2.52.178v6.994c-.045 1.608-.63 2.468-2.925 2.468Zm1.935-8.836a13.61 13.61 0 0 0-1.631-.112c-1.8 0-2.43.726-2.43 2.413v.872c0 1.81.653 2.413 2.25 2.413.6-.01 1.196-.088 1.777-.235l.034-5.35ZM125.901 66.703a12.176 12.176 0 0 1-2.396-.245v-.637c.787.105 1.58.169 2.374.19 1.406 0 1.845-.436 1.845-1.117 0-.682-.327-.928-1.677-1.43l-.54-.19c-1.428-.525-2.092-1.062-2.092-2.011 0-.95.866-1.642 2.677-1.642a9.838 9.838 0 0 1 2.194.234v.626a19.733 19.733 0 0 0-2.149-.145c-1.237 0-1.799.2-1.799.927 0 .726.382.905 1.541 1.33l.54.2c1.665.637 2.25 1.117 2.25 2.09 0 .971-.653 1.82-2.768 1.82ZM132.628 66.703c-2.126 0-3.116-1.117-3.116-3.184v-.726c0-2.078.99-3.183 3.116-3.183 2.127 0 3.116 1.117 3.116 3.183v.727c0 2.089-.989 3.183-3.116 3.183Zm2.25-3.898c0-1.732-.663-2.458-2.25-2.458-1.586 0-2.25.737-2.25 2.458v.726c0 1.731.664 2.468 2.25 2.468 1.587 0 2.25-.748 2.25-2.468v-.726ZM137.196 66.547v-9.574h.9v9.607l-.9-.033ZM144.744 66.547V66a6.295 6.295 0 0 1-2.655.703c-1.833 0-2.25-1.027-2.25-2.636V59.8h.878v4.278c0 1.441.36 1.944 1.552 1.944a6.568 6.568 0 0 0 2.475-.67v-5.586h.9v6.703l-.9.078ZM149.896 66.703c-1.271 0-1.698-.435-1.698-1.675V60.48l-1.632-.067v-.626h1.632v-1.81h.9v1.81h2.148v.682h-2.148v4.468c0 .86.123 1.061.9 1.061.371 0 .922 0 1.248-.066v.57a7.617 7.617 0 0 1-1.35.2ZM152.326 58.481v-1.508h.923v1.542l-.923-.034Zm0 8.066v-6.703h.911v6.703h-.911ZM157.816 66.703c-2.126 0-3.116-1.117-3.116-3.184v-.726c0-2.078.99-3.183 3.116-3.183 2.127 0 3.116 1.117 3.116 3.183v.727c0 2.089-1.001 3.183-3.116 3.183Zm2.25-3.898c0-1.732-.663-2.458-2.25-2.458-1.586 0-2.25.737-2.25 2.458v.726c0 1.731.664 2.468 2.25 2.468 1.587 0 2.25-.748 2.25-2.468v-.726ZM167.243 66.547v-4.279c0-1.44-.348-1.944-1.541-1.944a6.718 6.718 0 0 0-2.497.648v5.586h-.9v-6.703h.9v.47a6.015 6.015 0 0 1 2.576-.727c1.924 0 2.373.916 2.373 2.648v4.279l-.911.022ZM171.912 66.703a12.168 12.168 0 0 1-2.396-.245v-.637a22.4 22.4 0 0 0 2.373.19c1.407 0 1.845-.436 1.845-1.117 0-.682-.326-.928-1.676-1.43l-.54-.19c-1.428-.525-2.092-1.062-2.092-2.011 0-.95.866-1.642 2.677-1.642a9.838 9.838 0 0 1 2.194.234v.626a19.733 19.733 0 0 0-2.149-.145c-1.237 0-1.8.2-1.8.927 0 .726.383.905 1.541 1.33l.54.2c1.665.637 2.25 1.117 2.25 2.09 0 .971-.686 1.82-2.767 1.82Z" fill="#85C3D8"/></svg>