<svg width="240" height="96" fill="none" xmlns="http://www.w3.org/2000/svg"><g clip-path="url(#a)" fill="#96C8D8"><path d="M54.73 20H23.716A3.717 3.717 0 0 0 20 23.717v48.492a3.717 3.717 0 0 0 3.717 3.716h31.012a3.717 3.717 0 0 0 3.717-3.716V23.717A3.716 3.716 0 0 0 54.729 20Zm-2.8 29.833c0 2.012-.646 3.97-1.844 5.587l-4.97 6.708 5.762 5.34a.828.828 0 0 1-.563 1.432h-7.267a1.647 1.647 0 0 1-1.125-.44l-.893-.827-.717-.66-1.09-1.01-2.716-2.512a.832.832 0 0 1-.102-1.102l7.707-10.39a6.625 6.625 0 0 0 1.303-3.952v-8.723c0-2.806-1.077-4.007-1.482-4.323-.47-.366-1.462-1.235-4.71-1.235s-4.24.869-4.71 1.235c-.405.316-1.483 1.517-1.483 4.323v9.255a5.533 5.533 0 0 0 1.77 4.051l2.587 2.392a.83.83 0 0 1 .103 1.099l-3.093 4.167a.825.825 0 0 1-1.224.116l-3.648-3.38a9.373 9.373 0 0 1-3.008-6.883V36.478c0-3.916 1.19-5.687 2.56-6.893 1.551-1.364 4.325-2.56 10.146-2.56 5.821 0 8.595 1.196 10.146 2.56 1.37 1.206 2.56 2.977 2.56 6.893v13.355ZM216.852 49.714v18.649l-8.871-16.102c-1.075-1.917-1.815-2.542-3.213-2.542-1.399 0-2.387.967-2.387 2.898v20.548h3.145V54.516l8.871 16.102c1.075 1.917 1.815 2.541 3.214 2.541s2.386-.966 2.386-2.884V49.714h-3.145ZM154.369 49.73h-4.297l-8.652 9.219V49.73h-3.135v23.443h3.135v-9.628l.924-.987 7.958 10.625h4.067l-9.857-12.938 9.857-10.515ZM187.033 51.137c-1.747-1.151-3.746-1.407-5.716-1.407h-5.776v23.443h3.25v-8.234h2.526c1.97 0 3.969-.264 5.716-1.407 1.746-1.143 3.187-3.105 3.187-6.198 0-3.092-1.454-5.057-3.187-6.197Zm-1.665 9.79c-.872.688-2.226 1.117-4.051 1.117h-2.526v-9.42h2.526c1.825 0 3.179.427 4.051 1.118a4.56 4.56 0 0 1 1.292 5.591 4.56 4.56 0 0 1-1.292 1.594ZM84.362 70.423a9.114 9.114 0 0 0 1.04-1.668c.846-1.743.84-3.742.838-5.065v-4.614c0-1.318 0-3.322-.838-5.063-1.498-3.087-4.18-4.633-7.356-4.641h-.04c-3.177 0-5.855 1.556-7.354 4.64-.846 1.742-.84 3.741-.838 5.063v4.615c0 1.317 0 3.322.838 5.065 1.501 3.09 4.188 4.639 7.375 4.639a8.35 8.35 0 0 0 3.58-.767l2.523 3.296h4.446l-4.214-5.5Zm-1.26-6.598c0 1.072.014 2.536-.526 3.64-.566 1.164-1.917 2.929-4.554 2.929-2.637 0-3.988-1.765-4.554-2.93-.567-1.163-.527-2.823-.527-3.898V59.2c0-1.072-.042-2.731.527-3.895.569-1.165 1.917-2.93 4.554-2.93 2.636 0 3.988 1.765 4.554 2.93.566 1.164.527 2.823.527 3.895v4.626ZM125.052 53.523c2.144-1.617 4.591-1.783 8.368-.906v-2.168s-1.87-1.077-4.838-1.077c-2.969 0-4.699.766-6.077 1.994-1.58 1.398-2.779 3.632-3.129 7.111a31.46 31.46 0 0 0 0 5.982c.35 3.472 1.559 5.706 3.129 7.112 1.378 1.228 3.087 1.992 6.077 1.992 2.989 0 4.838-1.091 4.838-1.091v-2.168c-3.777.877-6.224.711-8.368-.906-2.186-1.646-2.634-4.712-2.634-7.936s.448-6.293 2.634-7.939ZM166.343 52.114c1.599.065 3.193.23 4.772.492v-2.523a20.754 20.754 0 0 0-6.337-.688 18.34 18.34 0 0 0-3.688.511c-1.722.443-2.681 1.265-3.213 2.07a3.862 3.862 0 0 0-.4 3.474c.037.101.076.206.121.31.606 1.564 1.528 2.765 2.834 4.18 1.401 1.517 4.309 4.232 5.531 5.694.762.933 1.657 2.178 1.212 3.253-.49 1.177-2.634 1.994-5.197 1.92a43.05 43.05 0 0 1-4.773-.492v2.51s1.986.874 6.335.7c4.349-.173 6.077-1.338 6.899-2.58.411-.69.642-1.472.671-2.274v-.068a3.148 3.148 0 0 0-.016-.4c-.063-1.207-.31-2.108-1.843-3.883-1.72-1.984-4.805-4.905-6.193-6.35l-.382-.401c-1.017-1.088-2.131-2.45-1.612-3.743.548-1.372 2.971-1.76 5.279-1.712ZM114.945 49.727h-3.25v23.456h3.25V49.727ZM197.5 49.69h-3.25v23.456h3.25V49.69ZM93.792 49.73h-3.137v15.367c0 2.747.927 8.429 7.978 8.429s7.981-5.692 7.981-8.43V49.73h-3.137v15.367c0 4.899-3.356 5.531-4.844 5.531-1.488 0-4.841-.619-4.841-5.531V49.73Z"/></g><defs><clipPath id="a"><path fill="#fff" transform="translate(20 20)" d="M0 0h200v55.923H0z"/></clipPath></defs></svg>