<svg width="240" height="96" fill="none" xmlns="http://www.w3.org/2000/svg"><g clip-path="url(#a)" fill-rule="evenodd" clip-rule="evenodd" fill="#96C8D8"><path d="m211.9 51.1 5.6 9.1h-6.4l-5.3-8.5h-.1v8.5H200V38.1h8.6c2-.1 4 .5 5.6 1.6 1.5 1.3 2.3 3.2 2.1 5.1 0 1.5-.4 2.9-1.3 4.1-.6 1.2-1.8 2-3.1 2.2Zm-1.9-7.3c-.2-.4-.5-.7-.9-.9-.4-.2-.8-.3-1.3-.4-.5-.1-1-.1-1.5-.1h-.6v5.5h.6c.5 0 1 0 1.5-.1.4-.1.9-.2 1.3-.4s.7-.5.9-.9c.4-.8.4-1.8 0-2.7Zm-26.2-5.7h12.6V43h-6.8v3.6h6.8v5h-6.8v3.6h6.8v5h-12.6V38.1ZM100.4 43h-6.8v3.6h6.8v5h-6.8v3.6h6.8v5H87.8V38.1h12.6V43ZM79 60.2l-5.3-8.5h-.1v8.5h-5.8V38.1h8.6c2-.1 4 .5 5.6 1.6 1.5 1.3 2.3 3.2 2.1 5.1 0 1.5-.4 2.9-1.3 4.1-.9 1.2-2.1 1.9-3.6 2.1l6 9.1-6.2.1Zm-1.1-16.4c-.2-.4-.5-.7-.9-.9-.4-.2-.8-.3-1.3-.4-.5-.1-1-.1-1.5-.1h-.6v5.5h.6c.5 0 1 0 1.5-.1.4-.1.9-.2 1.3-.4s.7-.5.9-.9c.5-.8.5-1.8 0-2.7Zm37.7-4.9c1.3.6 2.4 1.4 3.3 2.4 1 1 1.7 2.2 2.2 3.6 1.1 2.8 1.1 5.9 0 8.6-.5 1.3-1.3 2.5-2.3 3.5-.9 1-2.1 1.8-3.3 2.4-1.3.6-2.6.9-4 .9H104V38.2h7.6c1.3-.1 2.7.1 4 .7Zm-6.3 4v12.4h1.2c.8 0 1.5-.1 2.3-.4 1.5-.5 2.6-1.6 3.1-3.1.3-.9.5-1.8.5-2.7.1-1.7-.5-3.3-1.6-4.5-1.1-1.1-2.7-1.7-4.2-1.6l-1.3-.1Zm36.7 0h-4.8v17.3h-5.8V42.9h-4.8V38H146v4.9Zm9.3 17.3h-5.8V38h5.8v22.2Zm6.5-19.1c1-1 2.2-1.8 3.5-2.3 1.4-.5 3-.8 4.5-.8 2 0 3.9.5 5.6 1.5 1.6 1 2.9 2.6 3.7 4.3l-5.1 2.1c-.3-1-.9-1.8-1.7-2.4-.8-.6-1.7-.9-2.7-.9-.8 0-1.6.2-2.3.5-.7.4-1.2.9-1.7 1.5s-.8 1.4-1 2.1c-.5 1.6-.5 3.2 0 4.8.2.8.6 1.5 1 2.1.5.6 1 1.1 1.7 1.5.7.4 1.5.5 2.3.5 1.1 0 2.1-.3 3-.9.8-.7 1.3-1.6 1.3-2.7h-4.4v-4.2h10.6c0 1.5-.2 3.1-.4 4.6-.3 1.3-.9 2.6-1.6 3.6-.9 1.3-2.2 2.4-3.6 3.1-1.5.7-3.2 1-4.8 1-1.5 0-3-.2-4.4-.8-1.3-.5-2.5-1.3-3.5-2.2-1-1-1.8-2.2-2.3-3.5-.5-1.4-.8-2.9-.8-4.4 0-1.6.3-3.1.8-4.6.5-1.3 1.3-2.5 2.3-3.5ZM44 42.9c0 .6 0 1.3-.9 1.6-.6.2-1.2-.6-1.3-1.1.3-.4.7-.7 1.1-.8.9-.4 1.1-.4 1.1.3Zm-16.2 1.6c-.9-.3-.9-1-.9-1.6 0-.7.2-.7 1.1-.3.4.2.8.4 1.1.8 0 .5-.7 1.3-1.3 1.1Zm21.3 17.6c.6-.3 1.1-.6 1.5-1.1 2.2-2.3 2.6-5 2.9-8.2.1-.8.1-1.6.1-2.5 0-.1 0-.7.1-.7.2.2.3.4.4.6.3.7.4 1.5.5 2.3.3 1.5.3 3.1.1 4.6-.1.5-.3 1-.5 1.5-1.4 2.3-2.9 4.4-4.3 6.7-.1.2-.2-.2-.3-.2l-.1-.1c-.3-.2-.5-.2-.6-.1-.1.1-.1.2-.1.3-.3.8-1 2-1.4 2.7-.1.1-.2.2-.3.1-.1 0-.1-.1-.1-.2v-2.6c0-.5 0-1.2-.7-1.2s-.7.6-.8 1.2v1.6c0 .1-.1.3-.2.3h-.1c-.6-.5-1.3-.8-2-1.1-1.2-.5-2.5-.3-3.5.4l.2-.1c.9-.8 2.1-1.1 3.2-.9.3.1.6.1 1 .1.1 0 .2-.1.2-.3v-.1c-.4-1.2-1.9-5.6 1-7.1.1 0 .1-.1.1-.2.1-.8 1.6-4.3-2.4-6.6-.6.6-1.4 1.9-2.4 2.7 1.7.4 2.7-.7 3.5-1.4-.3 2-1.9 2.2-3.2 2.9 1.1-.5 2.2.2 3.4-.5-.9 1.8-2.8.9-3.9 1.8 1.1.7 2.1.3 3.1.2h.8c-.2.3-.5.7-.8.9-.4.3-.8.5-1.3.6-.5.1-1 .2-1.5 0-1.4-.4-2.8-1-4.2-1.5-.3.1-.5-.2-.5-.5-.1-.5 0-.9 0-1.4-.1-.6.3-1.2.9-1.3 1.3-.4 2.5-1.2 3.3-2.2.3-.4.5-.8.6-1.3 0-.4-.1-.8-.2-1.2-.1-.3-.1-.7 0-1v-.1l.3-1.2c.1-.4.3-.7.6-.9l.1-.1.1-.1c.5-.3 1.1-.5 1.7-.7 2-.8 3.6-2.5 4.2-4.5.2-.7.3-1.4.2-2.2-.2.4-.5 1.2-.7 1.6-.2.6-.9 1-1.5 1-1.8 0-3.6.3-4.6 2.3-.4 1-1.2 1.9-2.2 2.4 0-.6.1-1.1.3-1.6-.9-.4-.5-.9-.1-1.4.6-.7 1.3-1.3 1.9-2.1-.6-.1-1.1-.4-1.5-.8H43v-.1c-1.1-.2-2.2-.6-3.2-1.1 1.7-1 5.2-.5 5.8-.7 0-.1-.5-.2-1-.4l-2.8-.7c-1.1-.3-2.3-.8-3.3-1.3h4.7c-1.6-.9-3.4-1.5-5.2-1.7-1-.1-1.8-.1-2.4-.1v-.3.3c-.6 0-1.4 0-2.4.1-1.8.2-3.6.8-5.2 1.7h4.7c-1 .6-2.1 1-3.3 1.3-1.2.3-1.6.4-2.7.7-.5.2-1 .3-1 .4.6.2 4.1-.3 5.8.7-1 .5-2 .9-3.2 1.1v.1h3.6c-.4.4-.9.7-1.5.8.7.7 1.3 1.4 1.9 2.1.5.5.8 1-.1 1.4.2.5.3 1.1.3 1.6-1-.5-1.8-1.4-2.2-2.4-1-1.9-2.8-2.2-4.6-2.3-.7.1-1.3-.3-1.5-1-.2-.4-.5-1.2-.7-1.6-.1.7-.1 1.5.2 2.2.6 2.1 2.2 3.8 4.2 4.5.6.2 1.1.4 1.7.7 0 0 .1 0 .1.1 0 0 .1 0 .1.1.3.2.5.6.6.9l.3 1.2v.1c.1.3.1.6 0 1s-.2.8-.2 1.2c.1.5.3.9.6 1.3.8 1.1 2 1.9 3.3 2.2.6.1 1 .7.9 1.3 0 .5.1.9 0 1.4-.1.3-.3.5-.6.7-1.4.5-2.8 1.1-4.2 1.5-.5.1-1 .1-1.5 0s-.9-.3-1.3-.6c-.3-.3-.6-.6-.8-.9.3-.1.6-.1.8 0 1 .1 2 .5 3.1-.2-1.1-.9-3-.1-3.9-1.8 1.3.7 2.4 0 3.4.5-1.3-.7-2.8-.9-3.2-2.9.8.7 1.8 1.8 3.5 1.4-1-.8-1.8-2.1-2.4-2.7-4 2.3-2.5 5.8-2.4 6.6 0 .1.1.2.1.2 2.9 1.5 1.5 5.9 1 7.1v.2c0 .1.1.1.2.1.3 0 .6 0 1-.1 1.2-.3 2.4.1 3.2.9l.2.1c-1-.7-2.3-.9-3.5-.4-.7.3-1.4.6-2 1.1-.1.1-.3 0-.3-.1V65.4c0-.6 0-1.2-.8-1.2-.9-.2-.9.5-.9 1v2.6c0 .1-.1.2-.3.2-.1 0-.2 0-.2-.1-.4-.8-1-2-1.4-2.7 0-.1-.1-.2-.1-.3-.2-.1-.3-.1-.6.1l-.1.1c-.1.1-.2.4-.3.2-1.4-2.3-3-4.4-4.3-6.7-.3-.5-.4-1-.5-1.5-.2-1.5-.1-3.1.1-4.6.1-.8.2-1.5.5-2.3.1-.2.2-.5.4-.6.1 0 .1.6.1.7 0 .8 0 1.7.1 2.5.3 3.1.7 5.8 2.9 8.2.4.5 1 .8 1.5 1.1.1.1.3 0 .3-.1v-.2c-.7-1.4-1.4-2.7-1.9-4.1-.5-1.4-.9-3-1.3-4.4 0-.1 0-.3.2-.3h.1c.3.1.7.3 1.1.4.1 0 .3 0 .3-.1v-.2c-.4-1.4-1.8-5.6-1.8-5.6.1.1.9 1.3.9 1.4.6 1 1.2 2.1 1.7 3.2.2.6.4 1 .5 1.2 0 .1.1.2 0 .3-1.1 1-.2 2.8.3 3.3.7.8 1.1 1.7 1.4 2.7.1.2.2.5.3.8 0 .1.2.2.3.1.1 0 .2-.1.2-.2-.1-1.3-.3-3-.7-3.4-.7-.6-.5-2.7.2-3.1.7-.4.8-.7.5-1.3-.1-.1 0-.3.1-.3l3.1-1.8c.1-.1.2-.2.1-.3 0-.1-.1-.1-.2-.1-1.1-.1-2.2.2-3 .9-.7.4-1.5.2-1.9-.5-.1-.1-.1-.2-.1-.3-.1-.2-.1-.3-.2-.5 0-.1.1-.3.2-.3 1.5-.4 1.8-.5 1.9-.9 0-.1-.1-.3-.2-.3-.5.1-1.1 0-1.6-.2-.3-.3-.5-.7-.6-1.1 0-.1 0-.3.2-.3h.2c.5.2.7.2 1 0 .1-.1.1-.2 0-.4-.1-.1-.1-.2-.2-.2-1.1-.9-2.9-5.8-2.8-7.2-.5.4-.8.9-1 1.5-1.2-.5-2.1-.6-1.9-2.3l1.3.7s.1-.5-.6-1.1c-1.5-1.3-1.8-3-1.8-4.8-.1-.9.6-1.7 1.5-1.8.3 0 .7.1 1 .2 3 1.4 7 2.8 10.4 2.4h.1c2.1-.4 4.2-.7 6.4-.7 2.1 0 4.3.2 6.4.7h.1c3.4.4 7.4-1 10.4-2.4.8-.5 1.8-.2 2.2.5.2.3.3.6.2 1 0 1.8-.3 3.5-1.8 4.8-.7.6-.6 1.1-.6 1.1l1.3-.7c.2 1.7-.7 1.8-1.9 2.3-.2-.6-.5-1.1-1-1.5.1 1.4-1.7 6.3-2.8 7.2-.1.1-.2.1-.2.2s-.1.1-.1.2 0 .1.1.2c.3.2.4.2 1 0 .1-.1.3 0 .3.1v.2c-.1.4-.3.8-.6 1.1-.5.2-1.1.3-1.6.2-.1 0-.3.1-.2.3.1.5.3.5 1.9.9.1 0 .3.1.2.3 0 .2-.1.3-.2.5-.2.7-1 1.1-1.7.9-.1 0-.2-.1-.3-.1-.9-.7-1.9-1-3-.9-.1 0-.2.2-.2.3 0 .1.1.1.1.2l3.1 1.8c.1.1.2.2.1.4-.3.6-.2 1 .5 1.3.7.4.9 2.5.2 3.1-.4.4-.7 2.1-.7 3.4 0 .1.1.3.2.3s.2-.1.2-.2c.1-.3.2-.6.3-.8.3-1 .7-1.9 1.4-2.7.5-.6 1.4-2.4.3-3.3-.1-.1-.1-.2 0-.3.1-.2.3-.6.5-1.2.5-1.1 1-2.2 1.7-3.2.1-.1.9-1.3.9-1.4 0 0-1.4 4.2-1.8 5.6 0 .1 0 .3.2.3h.2c.3-.1.7-.3 1.1-.4.1 0 .3 0 .3.2v.2c-.4 1.5-.8 3-1.3 4.4-.5 1.4-1.3 2.8-1.9 4.1-.1.1 0 .3.1.3-.4-.2-.3-.2-.3-.2ZM28.5 51c-.1 0 0 0 0 0Zm-5.7-18.4c.3.1.5.1.8.2-.3-.1-.5-.2-.8-.2Zm-.3.4c-3.5-.3-2.8 2.3-2.2 3.8l.6.9.1.1c.9 2.1 1.6 6.4 5.8 8.1-.2-.1-.3-.2-.5-.3-1.2-1-2.2-2.3-2.9-3.7-1.9-3.8-1.4-6.1-1.6-7.1.4.1 1.6.4 1.9.5 0-.1-2.2-1-2.9-1.4.3-.2.6-.3.9-.3 1.5-.2 2 .3 3 .5.6.1 1.3 0 1.9-.1l-4.1-1Zm19.9 18s.1 0 0 0Zm4.9-18.2c.2-.1.5-.1.8-.2-.3 0-.5.1-.8.2Zm2.6 5.1s0-.1 0 0c0-.1.1-.1.1-.2l.6-.9c.7-1.5 1.3-4.1-2.2-3.8l-4.1 1c.6.2 1.3.2 1.9.1 1-.1 1.5-.6 3-.5.3 0 .7.2.9.3-.6.3-2.9 1.3-2.9 1.4.3-.1 1.5-.4 1.9-.5-.2.9.3 3.3-1.6 7.1-.7 1.4-1.7 2.7-2.9 3.7-.2.1-.3.2-.5.3 4.2-1.6 5-6 5.8-8ZM35.5 51.2h-1.7c-.6 0-1.3-.1-1.8-.4-.3-.2-.5-.6-.4-1 0-.5.7-.9.7-.9 0 1.2 1 1.6 3.3 1.6 2.2 0 3.3-.3 3.3-1.6 0 0 .7.4.7.9.1.4-.1.8-.4 1-.6.2-1.2.4-1.8.4h-1.9Zm0 13.2c.1 1.6-2.7 1.8-5.1.4-.1-.5.1-1.4-.1-1.6-.4-.3-1.1.1-1.5.4-.4.3-.7.8-1.1 1.1.2-2.5 2.7-4.8 6.5-5 .4 0 .8-.1 1.2 0h1.2c3.8.2 6.4 2.5 6.5 5-.4-.3-.7-.8-1.1-1.1-.4-.3-1.1-.6-1.5-.4-.3.2 0 1.1-.1 1.6-2.2 1.4-5 1.2-4.9-.4Z"/><path opacity=".05" d="M216.7 44.5c-.1.1.2.7.6.6.2 0 .4-.4.4-.5 0-.1-.2 0-.5 0s-.4-.2-.5-.1Z"/><path opacity=".2" d="M201.7 38.1c-.1 0-.2.1-.2.2 0 .2.8.2.9.2 1.6.1 4.9 1.1 6 1.5 1.3.5 3.5 1.3 5.1 3.4 1.3 1.8 1.9 4 2.2 3.9.2 0 .1-.5.1-.7-.1-2.6-3.1-5.2-3.1-5.2-5-4.3-10.4-3.7-11-3.3Z"/><path opacity=".1" d="M208.4 39.4c.1.2 1-.1.9-.3 0-.2-.6-.4-.8-.1-.1.1-.2.3-.1.4Z"/></g><defs><clipPath id="a"><path fill="#fff" transform="translate(16 29)" d="M0 0h208.6v38.8H0z"/></clipPath></defs></svg>