<svg width="240" height="96" fill="none" xmlns="http://www.w3.org/2000/svg"><path d="M32.93 71.978a5.938 5.938 0 0 1-1.888 4.917 4.62 4.62 0 0 1-3.397.938 5.333 5.333 0 0 1-4.347-2.078 7.66 7.66 0 0 1 .179-8.884 12.174 12.174 0 0 1 1.71-1.508 5.178 5.178 0 0 1 2.458-.57c.89.033 1.774.16 2.637.38a2.803 2.803 0 0 1 1.71 1.187.84.84 0 1 1-1.188 1.188c-.57-.38-.938-.76-1.318-.95a4.551 4.551 0 0 0-1.71-.368 3.695 3.695 0 0 0-3.207 1.698 6.474 6.474 0 0 0-.95 3.397 6.354 6.354 0 0 0 1.52 4.347 3.1 3.1 0 0 0 2.269.95 6.76 6.76 0 0 0 1.888-.38 3.67 3.67 0 0 0 2.079-3.563v-.57h-2.221a.7.7 0 0 1-.76-.76c0-.559.19-.749.76-.749h2.838c.558 0 .939.559.939 1.319v.059ZM217.222 71.978a5.94 5.94 0 0 1-1.889 4.917 4.643 4.643 0 0 1-3.408.938 5.368 5.368 0 0 1-4.347-2.078 7.687 7.687 0 0 1 .19-8.884 12.826 12.826 0 0 1 1.698-1.508 5.25 5.25 0 0 1 2.459-.57c.894.033 1.781.16 2.648.38a2.781 2.781 0 0 1 1.699 1.187.763.763 0 0 1 .199.873.76.76 0 0 1-.769.457.69.69 0 0 1-.559-.19c-.57-.38-.95-.76-1.33-.95a4.426 4.426 0 0 0-1.698-.368 3.68 3.68 0 0 0-3.207 1.698 6.472 6.472 0 0 0-.95 3.397 6.404 6.404 0 0 0 1.508 4.347 3.148 3.148 0 0 0 2.269.95 6.588 6.588 0 0 0 1.888-.38 3.646 3.646 0 0 0 2.079-3.563v-.57h-2.269a.691.691 0 0 1-.714-.46.697.697 0 0 1-.034-.3c0-.558.19-.748.748-.748h2.791a.999.999 0 0 1 1.188 1.188v.38l-.19-.143ZM110.996 76.895c0 .748-.19 1.188-.76 1.188a.691.691 0 0 1-.748-.749l-1.52-10.404-3.017 10.404c-.19.368-.38.558-.76.558s-.76-.19-.76-.558l-3.017-10.404-1.52 10.404c0 .558-.38.749-.939.749a.867.867 0 0 1-.76-.939v-.38l1.889-10.879a.984.984 0 0 1 .38-.76c.21-.2.474-.333.76-.38.38 0 .558 0 .748.19.19.19.38.38.38.57l2.649 9.264 2.648-9.502c0-.19.19-.38.38-.57.19-.19.369-.19.749-.19s.57 0 .76.19a.99.99 0 0 1 .38.76l2.078 11.438ZM140.486 77.085c0 .558-.19.938-.76.938-.57 0-.76-.19-.76-.748v-11.39c0-.57.19-.76.76-.76.57 0 .76.19.76.76v11.2ZM178.468 77.085c0 .558-.19.748-.748.748s-.57-.19-.95-.558l-6.806-9.644v9.264c0 .558-.19.748-.748.748s-.76-.19-.76-.748V65.553c0-.57.19-.76.57-.76.38 0 .558.19.938.57l6.616 9.644v-9.264a.678.678 0 0 1 .76-.76c.57 0 .748.19.748.76v11.342h.38ZM70.354 77.275c0 .368-.19.558-.748.558a.703.703 0 0 1-.57-.19c-.19 0-.19 0-.19-.19l-.76-2.268H62.23l-1.188 2.268c-.178.38-.368.57-.748.57s-.76-.19-.76-.57v-.368l4.157-10.962c.19-.38.19-.57.38-.76a.7.7 0 0 1 .57-.19c.263-.01.522.056.748.19a.985.985 0 0 1 .38.76l4.157 10.962c.38 0 .38.19.38.19h.048Zm-2.874-3.563-2.459-6.995-2.6 6.96 5.059.035ZM185.653 27.19a5.107 5.107 0 1 0 0-10.213 5.107 5.107 0 0 0 0 10.214ZM217.412 22.084a5.107 5.107 0 1 1-5.107-5.107 5.08 5.08 0 0 1 5.107 5.107ZM185.653 52.132a5.107 5.107 0 1 0 0-10.214 5.107 5.107 0 0 0 0 10.214ZM217.412 47.025a5.102 5.102 0 0 1-6.096 5.022 5.11 5.11 0 0 1-4.019-4.01 5.109 5.109 0 0 1 5.008-6.107 5.088 5.088 0 0 1 3.614 1.484 5.074 5.074 0 0 1 1.493 3.61ZM204.181 34.554a5.107 5.107 0 1 1-5.107-5.107 5.08 5.08 0 0 1 5.107 5.107ZM172.043 50.992l-14.169-33.445c-.19-.38-.38-.57-.761-.57h-6.045c-.38 0-.57.19-.76.57l-14.359 33.445v.19a.505.505 0 0 0 .137.424.496.496 0 0 0 .421.146h6.426c.38 0 .57-.19.76-.57l3.028-7.744h15.119l3.017 7.744c.19.38.38.57.76.57h6.426a.496.496 0 0 0 .551-.338.493.493 0 0 0 .019-.232c-.333 0-.333-.19-.57-.19ZM148.8 37.38l5.285-13.42 5.297 13.42H148.8ZM71.328 27.749a4.75 4.75 0 0 1 .938-1.889 5.582 5.582 0 0 1 2.459-2.078 8.731 8.731 0 0 1 3.218-.76h12.66a.82.82 0 0 0 .761-.76v-4.537a.82.82 0 0 0-.76-.748H76.589c-7.743 0-13.979 6.805-13.979 15.119v4.917c0 8.314 6.236 15.119 13.98 15.119h13.99a.82.82 0 0 0 .76-.76v-4.75a.82.82 0 0 0-.76-.75H77.92a8.125 8.125 0 0 1-3.22-.76 5.665 5.665 0 0 1-2.458-2.078 7.601 7.601 0 0 1-.914-1.864 13.063 13.063 0 0 1-.38-3.029v-.76h19.656a.82.82 0 0 0 .76-.76v-4.75a.82.82 0 0 0-.76-.76h-19.68v-.37s.19-1.674.404-2.992ZM114.773 51.752h11.532c.381 0 .571-.38.571-.76v-4.75c0-.381-.19-.761-.571-.761h-10.392a5.937 5.937 0 0 1-2.648-.76 6.116 6.116 0 0 1-2.079-2.079 3.057 3.057 0 0 1-.76-2.078V17.547a.506.506 0 0 0-.14-.43.493.493 0 0 0-.43-.14h-6.045a.823.823 0 0 0-.76.748V40.79a11.52 11.52 0 0 0 11.722 10.962ZM52.776 50.992 44.653 37.38c4.156-.95 6.995-3.789 6.995-10.024.19-8.314-5.487-10.202-12.483-10.392H22.349a.82.82 0 0 0-.76.748v33.469a.82.82 0 0 0 .76.76h6.045a.82.82 0 0 0 .76-.76V38.117h8.504L45.2 51.372a1.033 1.033 0 0 0 .938.57h6.425a.5.5 0 0 0 .57-.57c-.356-.19-.356-.38-.356-.38Zm-13.42-19.086-1.889.19h-8.504v-8.884h10.392c3.967 0 5.108 1.888 5.108 4.347-.19 2.458-1.319 4.347-5.108 4.347Z" fill="#85C3D8"/></svg>