<svg width="240" height="96" fill="none" xmlns="http://www.w3.org/2000/svg"><path d="M63.013 60.292a11.44 11.44 0 0 1-4.207-.784c-1.315-.522-2.33-1.199-3.046-2.03l.522-.697c.677.774 1.615 1.412 2.814 1.915a10.44 10.44 0 0 0 3.888.725c2.03 0 3.558-.396 4.583-1.189 1.045-.812 1.567-1.847 1.567-3.104 0-.967-.271-1.74-.813-2.321a4.935 4.935 0 0 0-2.001-1.335c-.793-.309-1.876-.628-3.25-.957-1.47-.367-2.65-.725-3.539-1.073a5.686 5.686 0 0 1-2.263-1.596c-.619-.715-.928-1.673-.928-2.872 0-.948.251-1.818.754-2.611.503-.793 1.267-1.422 2.292-1.886 1.044-.483 2.34-.725 3.888-.725 1.102 0 2.185.164 3.249.493 1.083.329 2.002.784 2.756 1.364l-.435.783a8.582 8.582 0 0 0-2.67-1.306 9.386 9.386 0 0 0-2.871-.464c-1.973 0-3.472.416-4.497 1.248-1.006.812-1.509 1.847-1.509 3.104 0 .986.271 1.78.813 2.379a5.63 5.63 0 0 0 2.03 1.334c.813.31 1.896.629 3.25.958 1.47.367 2.65.725 3.539 1.073.89.329 1.634.851 2.234 1.567.619.696.928 1.634.928 2.814a4.65 4.65 0 0 1-.783 2.61c-.503.794-1.286 1.422-2.35 1.886-1.064.465-2.379.697-3.945.697ZM83.77 45.003c1.373 0 2.62.329 3.743.986 1.121.639 2.001 1.548 2.64 2.728.657 1.16.986 2.475.986 3.945 0 1.47-.329 2.785-.986 3.946a7.074 7.074 0 0 1-2.64 2.698c-1.122.638-2.37.957-3.743.957-1.45 0-2.756-.368-3.916-1.103-1.141-.734-1.992-1.74-2.553-3.017v9.66h-.958V45.12h.929v4.12c.56-1.316 1.412-2.35 2.553-3.104 1.16-.755 2.475-1.132 3.945-1.132Zm-.029 14.39c1.219 0 2.311-.28 3.278-.842a6.232 6.232 0 0 0 2.321-2.379c.561-1.025.842-2.195.842-3.51s-.28-2.485-.842-3.51a5.974 5.974 0 0 0-2.32-2.38c-.968-.58-2.06-.87-3.279-.87-1.218 0-2.32.29-3.307.87-.967.562-1.731 1.355-2.292 2.38-.56 1.025-.841 2.195-.841 3.51s.28 2.485.841 3.51a6.299 6.299 0 0 0 2.292 2.38c.986.56 2.089.84 3.307.84ZM97.314 45.119h.957v15.057h-.957V45.119Zm.464-3.946a.968.968 0 0 1-.667-.26.917.917 0 0 1-.29-.668c0-.27.087-.493.26-.667a.95.95 0 0 1 1.364 0c.194.174.29.387.29.638a.917.917 0 0 1-.29.667.917.917 0 0 1-.667.29ZM113.267 45.003c1.876 0 3.355.551 4.438 1.654 1.083 1.083 1.625 2.64 1.625 4.67v8.849h-.958v-8.79c0-1.78-.454-3.134-1.363-4.062-.89-.948-2.166-1.422-3.829-1.422-1.876 0-3.356.561-4.439 1.683-1.083 1.102-1.625 2.592-1.625 4.468v8.123h-.957V45.119h.928v3.684a5.852 5.852 0 0 1 2.321-2.784c1.083-.677 2.369-1.016 3.859-1.016ZM132.759 60.263c-1.393 0-2.659-.32-3.8-.957a7.015 7.015 0 0 1-2.64-2.728c-.639-1.16-.958-2.475-.958-3.945 0-1.47.319-2.785.958-3.946a6.812 6.812 0 0 1 2.64-2.697c1.141-.658 2.407-.987 3.8-.987 1.412 0 2.679.329 3.8.986a6.812 6.812 0 0 1 2.64 2.699c.639 1.16.958 2.475.958 3.945 0 1.47-.319 2.785-.958 3.945a7.015 7.015 0 0 1-2.64 2.727c-1.121.639-2.388.958-3.8.958Zm0-.87c1.218 0 2.311-.28 3.278-.842a6.174 6.174 0 0 0 2.321-2.408c.561-1.025.841-2.195.841-3.51s-.28-2.476-.841-3.481a5.97 5.97 0 0 0-2.321-2.38c-.967-.58-2.06-.87-3.278-.87-1.219 0-2.321.29-3.307.87-.967.562-1.731 1.355-2.292 2.38-.561 1.005-.841 2.166-.841 3.481s.28 2.485.841 3.51a6.244 6.244 0 0 0 2.292 2.408c.986.561 2.088.841 3.307.841ZM165.085 45.003c1.837 0 3.278.542 4.322 1.625 1.064 1.083 1.596 2.65 1.596 4.7v8.848h-.958v-8.79c0-1.78-.435-3.134-1.305-4.062-.87-.948-2.108-1.422-3.713-1.422-1.799 0-3.23.561-4.294 1.683-1.064 1.122-1.596 2.611-1.596 4.468v8.123h-.957v-8.79c0-1.78-.435-3.134-1.306-4.062-.87-.948-2.098-1.422-3.684-1.422-1.818 0-3.259.561-4.323 1.683-1.044 1.102-1.566 2.592-1.566 4.468v8.123h-.957V45.119h.928v3.627c.464-1.16 1.209-2.07 2.234-2.727 1.044-.677 2.292-1.016 3.742-1.016 1.451 0 2.669.348 3.655 1.044.987.697 1.644 1.712 1.973 3.047.445-1.258 1.209-2.254 2.292-2.989 1.083-.734 2.389-1.102 3.917-1.102ZM191.176 52.778h-13.2c.02 1.276.32 2.418.9 3.423a6.168 6.168 0 0 0 2.379 2.35c1.025.561 2.166.841 3.423.841 1.025 0 1.973-.183 2.843-.55a5.425 5.425 0 0 0 2.147-1.683l.609.638a6.8 6.8 0 0 1-2.466 1.828 7.69 7.69 0 0 1-3.133.638c-1.47 0-2.785-.32-3.945-.957a7.164 7.164 0 0 1-2.699-2.728c-.657-1.16-.986-2.475-.986-3.945 0-1.47.3-2.785.899-3.946.619-1.16 1.47-2.06 2.553-2.697 1.083-.658 2.292-.987 3.627-.987 1.315 0 2.504.32 3.568.958 1.083.638 1.934 1.527 2.553 2.669.619 1.14.928 2.436.928 3.887v.261Zm-7.049-6.905c-1.122 0-2.137.262-3.046.784a5.809 5.809 0 0 0-2.176 2.205c-.542.928-.841 1.972-.9 3.133h12.272c-.077-1.16-.396-2.205-.957-3.133a5.816 5.816 0 0 0-2.176-2.205c-.89-.522-1.895-.784-3.017-.784ZM204.458 45.003c1.876 0 3.356.551 4.439 1.654 1.083 1.083 1.624 2.64 1.624 4.67v8.849h-.957v-8.79c0-1.78-.454-3.134-1.363-4.062-.89-.948-2.167-1.422-3.83-1.422-1.876 0-3.355.561-4.439 1.683-1.083 1.102-1.624 2.592-1.624 4.468v8.123h-.957V45.119h.928v3.684a5.847 5.847 0 0 1 2.321-2.784c1.083-.677 2.369-1.016 3.858-1.016ZM223.168 45.003c1.799 0 3.172.464 4.119 1.393.968.928 1.451 2.272 1.451 4.032v9.748h-.928v-3.017c-.484.967-1.209 1.73-2.176 2.291-.948.542-2.089.813-3.423.813-1.683 0-3.008-.387-3.975-1.16-.948-.774-1.421-1.8-1.421-3.076 0-1.218.435-2.205 1.305-2.959.87-.773 2.263-1.16 4.178-1.16h5.483v-1.48c0-1.49-.397-2.62-1.19-3.394-.773-.774-1.924-1.16-3.452-1.16-1.064 0-2.06.183-2.988.55-.929.368-1.722.861-2.379 1.48l-.522-.696c.735-.696 1.615-1.238 2.64-1.625a9.36 9.36 0 0 1 3.278-.58Zm-.899 14.447c2.707 0 4.545-1.208 5.512-3.626v-3.133h-5.483c-1.567 0-2.718.3-3.453.9-.715.58-1.073 1.373-1.073 2.378 0 1.083.396 1.934 1.189 2.553.813.62 1.915.928 3.308.928ZM236.459 38.65h.957v21.526h-.957V38.65ZM17.713 67.005c-5.328-1.635-13.715-9.02-13.715-12.132 0-.264 1.214-.053 2.638.527 2.268.844 4.114 1.003 13.24 1.003h10.549l-.159-1.425-.158-1.477-12.29-.263-12.29-.264-1.002-1.319c-1.477-1.898-1.635-3.428-1.477-13.978l.158-9.494 8.704-.158c9.863-.159 14.347.422 18.355 2.373 3.43 1.635 8.546 6.488 9.97 9.442l1.002 2.11-3.165-1.319c-2.954-1.213-4.009-1.318-13.345-1.53l-10.18-.21v3.27H25.36c16.615 0 16.088-.475 16.088 14.61V67.48l-11.182-.053c-6.172 0-11.816-.211-12.554-.422Z" fill="#85C3D8"/></svg>