<svg width="240" height="96" fill="none" xmlns="http://www.w3.org/2000/svg"><path d="M103.998 49.042c0 1.89 1.485 3.376 3.331 3.376.406 0 .811-.09 1.801-.45l1.396 3.466c-1.351.54-2.251.72-3.197.72a7.1 7.1 0 0 1-7.113-7.112V26.036h3.782v5.762h6.528v3.737h-6.528v13.507ZM113.016 49.042V37.516a7.1 7.1 0 0 1 7.113-7.113 7.099 7.099 0 0 1 7.113 7.113v11.526a7.1 7.1 0 0 1-7.113 7.113 7.1 7.1 0 0 1-7.113-7.113Zm7.113-14.903c-1.801 0-3.331 1.531-3.331 3.377v11.526c0 1.845 1.53 3.376 3.331 3.376 1.846 0 3.332-1.486 3.332-3.376V37.516c0-1.89-1.486-3.377-3.332-3.377ZM148.641 36.751c0-1.396-1.17-2.611-2.611-2.611-1.395 0-2.611 1.215-2.611 2.611v18.908h-3.736V36.751c0-1.396-1.171-2.611-2.612-2.611-1.395 0-2.611 1.215-2.611 2.611v18.908h-3.736V36.751a6.34 6.34 0 0 1 6.347-6.348c1.756 0 3.332.675 4.503 1.846 1.125-1.171 2.701-1.846 4.456-1.846 3.557 0 6.393 2.836 6.393 6.348v18.908h-3.781V36.751h-.001ZM172.548 37.516a3.324 3.324 0 0 0-3.332-3.332c-1.801 0-3.331 1.486-3.331 3.332V55.66h-3.782V21.353h3.782v9.905a6.915 6.915 0 0 1 3.331-.855 7.099 7.099 0 0 1 7.113 7.113V55.66h-3.782V37.516h.001ZM179.684 49.042V37.516a7.099 7.099 0 0 1 7.113-7.113 7.099 7.099 0 0 1 7.113 7.113v11.526a7.1 7.1 0 0 1-7.113 7.113 7.1 7.1 0 0 1-7.113-7.113Zm7.113-14.903c-1.801 0-3.332 1.531-3.332 3.377v11.526c0 1.845 1.531 3.376 3.332 3.376 1.846 0 3.331-1.486 3.331-3.376V37.516c.001-1.89-1.485-3.377-3.331-3.377ZM204.369 34.14c-1.801 0-3.331 1.53-3.331 3.376V55.66h-3.737V37.516c0-3.962 3.151-7.113 7.068-7.113 2.476 0 4.818 1.305 6.348 3.917l-3.197 1.89c-.9-1.44-1.935-2.07-3.151-2.07ZM222.085 37.516c0-1.846-1.531-3.377-3.331-3.377-1.846 0-3.332 1.486-3.332 3.377V55.66h-3.782V37.516a7.1 7.1 0 0 1 7.114-7.113c3.917 0 7.068 3.151 7.068 7.113V55.66h-3.737V37.516ZM131.706 73.594V67.03a2.76 2.76 0 0 1 2.767-2.768c1.107 0 2.103.665 2.625 1.85l-1.218.522c-.301-.711-.838-1.043-1.408-1.043-.806 0-1.454.648-1.454 1.439v6.563c0 .79.664 1.455 1.454 1.455.791 0 1.455-.665 1.455-1.456V72.17h-2.103v-1.328h3.416v2.752a2.76 2.76 0 0 1-2.767 2.767 2.76 2.76 0 0 1-2.767-2.767ZM147.345 72.503h-2.894v3.7h-1.312v-9.14a2.76 2.76 0 0 1 2.767-2.768 2.76 2.76 0 0 1 2.767 2.767v9.141h-1.328v-3.7Zm-1.439-6.895c-.791 0-1.455.648-1.455 1.454v4.128h2.894v-4.127c0-.807-.649-1.455-1.439-1.455ZM160.502 68.422l-1.834 5.282h-.728l-1.819-5.282v7.78h-1.312V64.406h1.328l2.167 6.325 2.182-6.325h1.329v11.796h-1.313v-7.78ZM170.227 64.406h-1.312v11.797h1.312V64.406ZM178.544 68.28v7.923h-1.328V64.406h1.297l2.925 7.954v-7.954h1.313v11.797h-1.297l-2.91-7.923ZM188.823 73.594V67.03a2.76 2.76 0 0 1 2.768-2.768c1.107 0 2.103.665 2.624 1.85l-1.218.522c-.3-.711-.837-1.043-1.407-1.043-.807 0-1.455.648-1.455 1.439v6.563c0 .79.664 1.455 1.455 1.455s1.455-.665 1.455-1.456V72.17h-2.103v-1.328h3.416v2.752a2.76 2.76 0 0 1-2.767 2.767 2.76 2.76 0 0 1-2.768-2.767Z" fill="#85C3D8"/><path fill-rule="evenodd" clip-rule="evenodd" d="M77.912 32.074a6.48 6.48 0 0 0 .754-9.132C65.59 7.51 42.46 5.692 27.012 18.783 11.564 31.874 9.565 54.99 22.642 70.42c6.477 7.642 15.44 11.951 24.692 12.754a6.48 6.48 0 1 0 1.12-12.91c-5.993-.52-11.753-3.3-15.925-8.223-8.41-9.924-7.172-24.868 2.861-33.371 10.034-8.503 24.98-7.274 33.39 2.65a6.48 6.48 0 0 0 9.132.754Z" fill="#85C3D8"/><path fill-rule="evenodd" clip-rule="evenodd" d="M44.018 16.517c0-3.569 2.905-6.462 6.49-6.462 20.26 0 36.63 16.426 36.63 36.62 0 20.196-16.37 36.622-36.63 36.622-10.034 0-19.132-4.043-25.737-10.564a6.443 6.443 0 0 1-.04-9.139 6.51 6.51 0 0 1 9.18-.038c4.28 4.225 10.133 6.816 16.597 6.816 13.03 0 23.649-10.58 23.649-23.696 0-13.117-10.618-23.696-23.649-23.696-3.585 0-6.49-2.893-6.49-6.463Z" fill="#96C8D8"/><path fill-rule="evenodd" clip-rule="evenodd" d="M77.636 32.093a6.49 6.49 0 0 0 .755-9.148C65.293 7.488 42.123 5.666 26.65 18.779a6.49 6.49 0 0 0 8.393 9.904c10.05-8.518 25.02-7.286 33.445 2.655a6.49 6.49 0 0 0 9.148.755Z" fill="#85C3D8"/></svg>